<svg
  width="1440"
  height="281"
  viewBox="0 0 1440 281"
  fill="none"
  xmlns="http://www.w3.org/2000/svg"
>
  <path
    d="M30.2705 177.957H-16.7214V94.0931H33.9195C37.2989 94.0931 41.7062 93.8656 44.4616 93.5798L44.4868 93.5772L44.5116 93.5721C53.8802 91.6277 62.3284 87.7381 70.2526 81.7394C75.4787 77.7965 80.1318 73.1104 83.982 67.7934C89.7254 59.9069 93.5748 51.0472 95.4138 41.5598C95.6237 40.5423 95.6943 38.9386 95.7155 37.5119C95.7312 36.4585 95.7199 35.4622 95.7129 34.8348C95.7103 34.6079 95.7083 34.4293 95.7083 34.3136V34.3073V34.3008V34.2943V34.2877V34.281V34.2743V34.2674V34.2605V34.2535V34.2464V34.2393V34.2321V34.2248V34.2174V34.2099V34.2024V34.1947V34.1871V34.1793V34.1715V34.1635V34.1555V34.1475V34.1394V34.1311V34.1229V34.1145V34.1061V34.0976V34.089V34.0804V34.0717V34.0629V34.054V34.0451V34.0361V34.0271V34.018V34.0088V33.9995V33.9902V33.9808V33.9713V33.9618V33.9522V33.9425V33.9328V33.923V33.9132V33.9033V33.8933V33.8833V33.8732V33.863V33.8528V33.8425V33.8321V33.8217V33.8112V33.8007V33.7901V33.7795V33.7688V33.758V33.7472V33.7363V33.7253V33.7143V33.7033V33.6922V33.681V33.6698V33.6585V33.6472V33.6358V33.6243V33.6128V33.6013V33.5897V33.578V33.5663V33.5546V33.5427V33.5309V33.519V33.507V33.495V33.4829V33.4708V33.4586V33.4464V33.4342V33.4219V33.4095V33.3971V33.3847V33.3722V33.3596V33.347V33.3344V33.3217V33.309V33.2962V33.2834V33.2706V33.2577V33.2447V33.2317V33.2187V33.2056V33.1925V33.1794V33.1662V33.153V33.1397V33.1264V33.113V33.0996V33.0862V33.0727V33.0592V33.0457V33.0321V33.0185V33.0049V32.9912V32.9775V32.9637V32.9499V32.9361V32.9222V32.9083V32.8944V32.8805V32.8665V32.8524V32.8384V32.8243V32.8102V32.796V32.7819V32.7676V32.7534V32.7391V32.7248V32.7105V32.6962V32.6818V32.6674V32.6529V32.6385V32.624V32.6095V32.5949V32.5804V32.5658V32.5512V32.5365V32.5219V32.5072V32.4925V32.4778V32.463V32.4482V32.4334V32.4186V32.4038V32.3889V32.374V32.3591V32.3442V32.3293V32.3143V32.2994V32.2844V32.2694V32.2543V32.2393V32.2242V32.2092V32.1941V32.179V32.1638V32.1487V32.1336V32.1184V32.1032V32.088V32.0728V32.0576V32.0424V32.0272V32.0119V31.9967V31.9814V31.9661V31.9508V31.9355V31.9202V31.9049V31.8896V31.8742V31.8589V31.8435V31.8282V31.8128V31.7975V31.7821V31.7667V31.7513V31.7359V31.7206V31.7052V31.6898V31.6744V31.659V31.6435V31.6281V31.6127V31.5973V31.5819V31.5665V31.5511V31.5357V31.5203V31.5048V31.4894V31.474V31.4586V31.4432V31.4278V31.4124V31.397V31.3816V31.3662V31.3509V31.3355V31.3201V31.3047V31.2894V31.274V31.2587V31.2433V31.228V31.2127V31.1974V31.1821V31.1668V31.1515V31.1362V31.1209V31.1057V31.0904V31.0752V31.06V31.0448V31.0296V31.0144V30.9992V30.984V30.9689V30.9537V30.9386V30.9235V30.9084V30.8934V30.8783V30.8633V30.8482V30.8332V30.8182V30.8033V30.7883V30.7734V30.7585V30.7436V30.7287V30.7138V30.699V30.6842V30.6694V30.6546V30.6399V30.6252V30.6104V30.5958V30.5811V30.5665V30.5519V30.5373V30.5227V30.5082V30.4937V30.4792V30.4647V30.4503V30.4359V30.4215V30.4071V30.3928V30.3785V30.3643V30.35V30.3358V30.3217V30.3075V30.2934V30.2793V30.2653V30.2512V30.2372V30.2233V30.2094V30.1955V30.1816V30.1678V30.154V30.1403V30.1265V30.1129V30.0992V30.0856V30.072V30.0585V30.045V30.0315V30.0181V30.0047V29.9914V29.9781V29.9648V29.9516V29.9384V29.9252V29.9121V29.8991V29.8861V29.8731V29.8601V29.8472V29.8344V29.8216V29.8088V29.7961V29.7834V29.7708V29.7582V29.7457V29.7332V29.7207V29.7083V29.696V29.6837V29.6714V29.6592V29.6471V29.635V29.6229V29.6109V29.5989V29.587V29.5751V29.5633V29.5516V29.5399V29.5282V29.5166V29.5051V29.4936V29.4822V29.4708V29.4594V29.4482V29.437V29.4258V29.4147V29.4036V29.3926V29.3817V29.3708V29.36V29.3492V29.3385V29.3279V29.3173V29.3068V29.2963V29.2859V29.2756V29.2653V29.2551V29.2449V29.2348V29.2248V29.2148V29.2049V29.195V29.1853V29.1755V29.1659V29.1563V29.1468V29.1373V29.1279V29.1186V29.1094V29.1002V29.0911V29.082V29.073V29.0641V29.0553V29.0465V29.0378V29.0292V29.0206V29.0121V29.0037V28.9954V28.9871V28.9789V28.9708V28.9627V28.9547V28.9468V28.939V28.9312V28.9235V28.9159V28.9084V28.9009V28.8936V28.8863V28.879V28.8719V28.8648V28.8578V28.8509V28.8441V28.8373V28.8307V28.8241V28.8176V28.8111V28.8048V28.7985V28.7923V28.7862V28.7802V28.7743V28.7684V28.7626V28.757V28.7514V28.7458V28.7404V28.7351V28.7298V28.7246V28.7196V28.7146V28.7097V28.7048V28.7001V28.6955V28.6909V28.6865V28.6821V28.6778V28.6736V28.6695V28.6655V28.6616V28.6577V28.654V28.6504V28.6468V28.6434V28.64V28.6367V28.6336V28.6305V28.6275V28.6246V28.6218V28.6191V28.6166V28.6141V28.6117V28.6094V28.6071V28.605V28.603V28.6011V28.5993V28.5976V28.596V28.5945V28.5931V28.5918V28.5906V28.5895V28.5885V28.5876V28.5868V28.5861V28.5856V28.5851V28.5847V28.5845V28.5843L95.2083 28.5842L95.7083 28.5842V28.584V28.5836V28.5831V28.5824V28.5817V28.5807V28.5797V28.5785V28.5771V28.5756V28.574V28.5722V28.5703V28.5683V28.5661V28.5638V28.5613V28.5587V28.556V28.5531V28.5501V28.547V28.5437V28.5403V28.5368V28.5331V28.5293V28.5253V28.5213V28.5171V28.5127V28.5083V28.5037V28.499V28.4941V28.4891V28.484V28.4788V28.4734V28.4679V28.4623V28.4565V28.4507V28.4447V28.4385V28.4323V28.4259V28.4194V28.4128V28.4061V28.3992V28.3922V28.3851V28.3779V28.3705V28.363V28.3554V28.3477V28.3399V28.3319V28.3239V28.3157V28.3074V28.2989V28.2904V28.2817V28.273V28.2641V28.2551V28.2459V28.2367V28.2274V28.2179V28.2083V28.1986V28.1888V28.1789V28.1689V28.1588V28.1485V28.1382V28.1277V28.1171V28.1064V28.0956V28.0847V28.0737V28.0626V28.0514V28.0401V28.0286V28.0171V28.0054V27.9937V27.9818V27.9699V27.9578V27.9456V27.9334V27.921V27.9085V27.896V27.8833V27.8705V27.8576V27.8447V27.8316V27.8184V27.8051V27.7918V27.7783V27.7647V27.7511V27.7373V27.7235V27.7095V27.6955V27.6813V27.6671V27.6528V27.6383V27.6238V27.6092V27.5945V27.5797V27.5648V27.5499V27.5348V27.5196V27.5044V27.4891V27.4736V27.4581V27.4425V27.4268V27.4111V27.3952V27.3793V27.3632V27.3471V27.3309V27.3146V27.2982V27.2818V27.2652V27.2486V27.2319V27.2151V27.1983V27.1813V27.1643V27.1472V27.13V27.1127V27.0953V27.0779V27.0604V27.0428V27.0252V27.0074V26.9896V26.9717V26.9537V26.9357V26.9176V26.8994V26.8811V26.8627V26.8443V26.8258V26.8073V26.7886V26.7699V26.7512V26.7323V26.7134V26.6944V26.6753V26.6562V26.637V26.6177V26.5984V26.579V26.5595V26.54V26.5204V26.5007V26.481V26.4612V26.4413V26.4214V26.4014V26.3814V26.3613V26.3411V26.3208V26.3005V26.2802V26.2597V26.2393V26.2187V26.1981V26.1774V26.1567V26.1359V26.1151V26.0942V26.0732V26.0522V26.0312V26.01V25.9889V25.9676V25.9463V25.925V25.9036V25.8822V25.8607V25.8391V25.8175V25.7958V25.7741V25.7524V25.7306V25.7087V25.6868V25.6648V25.6428V25.6208V25.5987V25.5765V25.5543V25.5321V25.5098V25.4874V25.4651V25.4426V25.4202V25.3976V25.3751V25.3525V25.3298V25.3071V25.2844V25.2616V25.2388V25.216V25.1931V25.1701V25.1472V25.1242V25.1011V25.078V25.0549V25.0317V25.0085V24.9853V24.962V24.9387V24.9153V24.892V24.8685V24.8451V24.8216V24.7981V24.7745V24.751V24.7274V24.7037V24.68V24.6563V24.6326V24.6088V24.585V24.5612V24.5373V24.5135V24.4896V24.4656V24.4416V24.4177V24.3936V24.3696V24.3455V24.3214V24.2973V24.2732V24.249V24.2248V24.2006V24.1764V24.1521V24.1278V24.1035V24.0792V24.0549V24.0305V24.0061V23.9818V23.9573V23.9329V23.9084V23.884V23.8595V23.835V23.8105V23.7859V23.7614V23.7368V23.7122V23.6876V23.663V23.6384V23.6138V23.5891V23.5645V23.5398V23.5151V23.4904V23.4657V23.441V23.4163V23.3916V23.3669V23.3421V23.3174V23.2926V23.2678V23.2431V23.2183V23.1935V23.1687V23.1439V23.1191V23.0943V23.0695V23.0447V23.0199V22.9951V22.9702V22.9454V22.9206V22.8958V22.871V22.8461V22.8213V22.7965V22.7717V22.7469V22.7221V22.6973V22.6724V22.6476V22.6228V22.5981V22.5733V22.5485V22.5237V22.4989V22.4742V22.4494V22.4247V22.3999V22.3752V22.3504V22.3257V22.301V22.2763V22.2516V22.2269V22.2023V22.1776V22.153V22.1284V22.1037V22.0791V22.0545V22.03V22.0054V21.9809V21.9563V21.9318V21.9073V21.8828V21.8583V21.8339V21.8095V21.7851V21.7607V21.7363V21.7119V21.6876V21.6633V21.639V21.6147V21.5904V21.5662V21.542V21.5178V21.4937V21.4695V21.4454V21.4213V21.3973V21.3732V21.3492V21.3252V21.3012V21.2773V21.2534V21.2295V21.2057V21.1819V21.1581V21.1343V21.1106V21.0869V21.0632V21.0395V21.0159V20.9924V20.9688V20.9453V20.9218V20.8984V20.875V20.8516V20.8282V20.8049V20.7817V20.7584V20.7352V20.7121V20.689V20.6659V20.6428V20.6198V20.5968V20.5739V20.551V20.5282V20.5054V20.4826V20.4599V20.4372V20.4146V20.392V20.3694V20.3469V20.3244V20.302V20.2796V20.2573V20.235V20.2128V20.1906V20.1684V20.1463V20.1243V20.1023V20.0803V20.0584V20.0366V20.0148V19.993V19.9713V19.9497V19.9281V19.9065V19.885V19.8636V19.8422V19.8208V19.7996V19.7783V19.7572V19.736V19.715V19.694V19.673V19.6521V19.6313V19.6105V19.5898V19.5692V19.5486V19.528V19.5076V19.4871V19.4668V19.4465V19.4263V19.4061V19.386V19.3659V19.3459V19.326V19.3062V19.2864V19.2667V19.247V19.2274V19.2079V19.1884V19.169V19.1497V19.1304V19.1112V19.0921V19.0731V19.0541V19.0435V19.0328V19.0222V19.0115V19.0009V18.9902V18.9795V18.9689V18.9582V18.9475V18.9369V18.9262V18.9155V18.9048V18.8941V18.8834V18.8727V18.862V18.8513V18.8406V18.8299V18.8192V18.8084V18.7977V18.787V18.7762V18.7655V18.7548V18.744V18.7333V18.7225V18.7117V18.701V18.6902V18.6794V18.6687V18.6579V18.6471V18.6363V18.6255V18.6147V18.6039V18.5931V18.5823V18.5715V18.5607V18.5499V18.5391V18.5282V18.5174V18.5066V18.4957V18.4849V18.4741V18.4632V18.4524V18.4415V18.4306V18.4198V18.4089V18.398V18.3872V18.3763V18.3654V18.3545V18.3436V18.3327V18.3218V18.3109V18.3V18.2891V18.2782V18.2673V18.2564V18.2454V18.2345V18.2236V18.2126V18.2017V18.1907V18.1798V18.1688V18.1579V18.1469V18.1359V18.125V18.114V18.103V18.092V18.0811V18.0701V18.0591V18.0481V18.0371V18.0261V18.0151V18.0041V17.993V17.982V17.971V17.96V17.9489V17.9379V17.9269V17.9158V17.9048V17.8937V17.8827V17.8716V17.8605V17.8495V17.8384V17.8273V17.8163V17.8052V17.7941V17.783V17.7719V17.7608V17.7497V17.7386V17.7275V17.7164V17.7053V17.6941V17.683V17.6719V17.6608V17.6496V17.6385V17.6273V17.6162V17.605V17.5939V17.5827V17.5716V17.5604V17.5492V17.538V17.5269V17.5157V17.5045V17.4933V17.4821V17.4709V17.4597V17.4485V17.4373V17.4261V17.4148V17.4036V17.3924V17.3812V17.3699V17.3587V17.3475V17.3362V17.325V17.3137V17.3024V17.2912V17.2799V17.2687V17.2574V17.2461V17.2348V17.2235V17.2122V17.201V17.1897V17.1784V17.1671V17.1557V17.1444V17.1331V17.1218V17.1105V17.0991V17.0878V17.0765V17.0651V17.0538V17.0425V17.0311V17.0197V17.0084V16.997V16.9857V16.9743V16.9629V16.9515V16.9402V16.9288V16.9174V16.906V16.8946V16.8832V16.8718V16.8604V16.849V16.8375V16.8261V16.8147V16.8033V16.7918V16.7804V16.769V16.7575V16.7461V16.7346V16.7232V16.7117V16.7002V16.6888V16.6773V16.6658V16.6543V16.6429V16.6314V16.6199V16.6084V16.5969V16.5854V16.5739V16.5624V16.5508V16.5393V16.5278V16.5163V16.5047V16.4932V16.4817V16.4701V16.4586V16.447V16.4355V16.4239V16.4124V16.4008V16.3892V16.3777V16.3661V16.3545V16.3429V16.3313V16.3197V16.3081V16.2965V16.2849V16.2733V16.2617V16.2501V16.2385V16.2269V16.2152V16.2036V16.192V16.1803V16.1687V16.157V16.1454V16.1337V16.1221V16.1104V16.0987V16.0871V16.0754V16.0637V16.052V16.0403V16.0287V16.017V16.0053V15.9936V15.9819V15.9702V15.9584V15.9467V15.935V15.9233V15.9115V15.8998V15.8881V15.8763V15.8646V15.8528V15.8411V15.8293V15.8176V15.8058V15.794V15.7823V15.7705V15.7587V15.7469V15.7351V15.7234V15.7116V15.6998V15.688V15.6762V15.6643V15.6525V15.6407V15.6289V15.6171V15.6052V15.5934V15.5816V15.5697V15.5579V15.546V15.5342V15.5223V15.5105V15.4986V15.4867V15.4748V15.463V15.4511V15.4392V15.4273V15.4154V15.4035V15.3916V15.3797V15.3678V15.3559V15.344V15.3321V15.3201V15.3082V15.2963V15.2843V15.2724V15.2605V15.2485V15.2366V15.2246V15.2127V15.2007V15.1887V15.1768V15.1648V15.1528V15.1408V15.1288V15.1168V15.1049V15.0929V15.0809V15.0688V15.0568V15.0448V15.0328V15.0208V15.0088V14.9967V14.9847V14.9727V14.9606V14.9486V14.9365V14.9245V14.9124V14.9004V14.8883V14.8762V14.8642V14.8521V14.84V14.8279V14.8158V14.8037V14.7916V14.7795V14.7674V14.7553V14.7432V14.7311V14.719V14.7069V14.6947V14.6826V14.6705V14.6583V14.6462V14.6341V14.6219V14.6098V14.5976V14.5854V14.5733V14.5611V14.5489V14.5368V14.5246V14.5124V14.5002V14.488V14.4758V14.4636V14.4514V14.4392V14.427V14.4148V14.4026V14.3903V14.3781V14.3659V14.3536V14.3414V14.3292V14.3169V14.3047V14.2924V14.2801V14.2679V14.2556V14.2433V14.2311V14.2188V14.2065V14.1942V14.1819V14.1696V14.1573V14.145V14.1327V14.1204V14.1081V14.0958V14.0835V14.0711V14.0588V14.0465V14.0342V14.0218V14.0095V13.9971V13.9848V13.9724V13.9601V13.9477V13.9353V13.9229V13.9106V13.8982V13.8858V13.8734V13.861V13.8486V13.8362V13.8238V13.8114V13.799V13.7866V13.7742V13.7618V13.7493V13.7369V13.7245V13.712V13.6996V13.6871V13.6747V13.6622V13.6498V13.6373V13.6249V13.6124V13.5999V13.5874V13.575V13.5625V13.55V13.5375V13.525V13.5125V13.5V13.4875V13.475V13.4625V13.4499V13.4374V13.4249V13.4124V13.3998V13.3873V13.3747V13.3622V13.3496V13.3371V13.3245V13.312V13.2994V13.2868V13.2743V13.2617V13.2491V13.2365V13.2239V13.2113V13.1987V13.1861V13.1735V13.1609V13.1483V13.1357V13.1231V13.1104V13.0978V2.25244H179.943V28.9813C179.943 34.2392 179.659 39.5534 179.091 44.7538L179.091 44.7554C177.898 56.0054 175.397 67.0867 171.704 77.7157L171.704 77.7161C167.67 89.3616 162.158 100.443 155.396 110.676C152.725 114.691 149.827 118.648 146.759 122.436C140.508 130.126 133.462 137.249 125.792 143.581L125.79 143.582C121.984 146.747 117.892 149.801 113.687 152.628C103.402 159.525 92.2656 165.122 80.6171 169.25L80.6162 169.25C69.9912 173.037 58.8546 175.638 47.4909 176.939C41.803 177.561 36.0065 177.957 30.2705 177.957Z"
    stroke="#133205"
  />
  <mask id="path-2-inside-1_482_3596" fill="white">
    <path
      d="M257.806 164.277V77.5986L208.547 77.1445C202.561 77.1445 201.705 77.1445 198.227 77.1445C123.255 77.1445 62.4792 137.616 62.4792 212.211C62.4792 286.807 121.431 345.406 194.807 347.221V347.334H257.806V263.492H198.114C171.146 262.811 149.424 240.858 149.424 213.799C149.424 186.741 171.773 164.106 199.368 164.106"
    />
  </mask>
  <path
    d="M257.806 77.5986H258.806V76.6077L257.815 76.5986L257.806 77.5986ZM208.547 77.1445L208.556 76.1445H208.547V77.1445ZM194.807 347.221H195.807V346.245L194.832 346.221L194.807 347.221ZM194.807 347.334H193.807V348.334H194.807V347.334ZM257.806 347.334V348.334H258.806V347.334H257.806ZM257.806 263.492H258.806V262.492H257.806V263.492ZM198.114 263.492L198.088 264.492L198.101 264.492H198.114V263.492ZM258.806 164.277V77.5986H256.806V164.277H258.806ZM257.815 76.5986L208.556 76.1446L208.538 78.1445L257.797 78.5985L257.815 76.5986ZM208.547 76.1445C208.535 76.1445 208.523 76.1445 208.512 76.1445C208.5 76.1445 208.489 76.1445 208.477 76.1445C208.465 76.1445 208.454 76.1445 208.442 76.1445C208.431 76.1445 208.419 76.1445 208.407 76.1445C208.396 76.1445 208.384 76.1445 208.373 76.1445C208.361 76.1445 208.35 76.1445 208.338 76.1445C208.327 76.1445 208.316 76.1445 208.304 76.1445C208.293 76.1445 208.281 76.1445 208.27 76.1445C208.259 76.1445 208.247 76.1445 208.236 76.1445C208.225 76.1445 208.213 76.1445 208.202 76.1445C208.191 76.1445 208.179 76.1445 208.168 76.1445C208.157 76.1445 208.146 76.1445 208.134 76.1445C208.123 76.1445 208.112 76.1445 208.101 76.1445C208.089 76.1445 208.078 76.1445 208.067 76.1445C208.056 76.1445 208.045 76.1445 208.034 76.1445C208.023 76.1445 208.011 76.1445 208 76.1445C207.989 76.1445 207.978 76.1445 207.967 76.1445C207.956 76.1445 207.945 76.1445 207.934 76.1445C207.923 76.1445 207.912 76.1445 207.901 76.1445C207.89 76.1445 207.879 76.1445 207.868 76.1445C207.857 76.1445 207.846 76.1445 207.836 76.1445C207.825 76.1445 207.814 76.1445 207.803 76.1445C207.792 76.1445 207.781 76.1445 207.77 76.1445C207.76 76.1445 207.749 76.1445 207.738 76.1445C207.727 76.1445 207.716 76.1445 207.706 76.1445C207.695 76.1445 207.684 76.1445 207.674 76.1445C207.663 76.1445 207.652 76.1445 207.641 76.1445C207.631 76.1445 207.62 76.1445 207.609 76.1445C207.599 76.1445 207.588 76.1445 207.578 76.1445C207.567 76.1445 207.556 76.1445 207.546 76.1445C207.535 76.1445 207.525 76.1445 207.514 76.1445C207.504 76.1445 207.493 76.1445 207.483 76.1445C207.472 76.1445 207.462 76.1445 207.451 76.1445C207.441 76.1445 207.43 76.1445 207.42 76.1445C207.409 76.1445 207.399 76.1445 207.389 76.1445C207.378 76.1445 207.368 76.1445 207.358 76.1445C207.347 76.1445 207.337 76.1445 207.326 76.1445C207.316 76.1445 207.306 76.1445 207.296 76.1445C207.285 76.1445 207.275 76.1445 207.265 76.1445C207.255 76.1445 207.244 76.1445 207.234 76.1445C207.224 76.1445 207.214 76.1445 207.203 76.1445C207.193 76.1445 207.183 76.1445 207.173 76.1445C207.163 76.1445 207.153 76.1445 207.143 76.1445C207.132 76.1445 207.122 76.1445 207.112 76.1445C207.102 76.1445 207.092 76.1445 207.082 76.1445C207.072 76.1445 207.062 76.1445 207.052 76.1445C207.042 76.1445 207.032 76.1445 207.022 76.1445C207.012 76.1445 207.002 76.1445 206.992 76.1445C206.982 76.1445 206.972 76.1445 206.962 76.1445C206.952 76.1445 206.942 76.1445 206.933 76.1445C206.923 76.1445 206.913 76.1445 206.903 76.1445C206.893 76.1445 206.883 76.1445 206.874 76.1445C206.864 76.1445 206.854 76.1445 206.844 76.1445C206.834 76.1445 206.825 76.1445 206.815 76.1445C206.805 76.1445 206.795 76.1445 206.786 76.1445C206.776 76.1445 206.766 76.1445 206.757 76.1445C206.747 76.1445 206.737 76.1445 206.728 76.1445C206.718 76.1445 206.708 76.1445 206.699 76.1445C206.689 76.1445 206.679 76.1445 206.67 76.1445C206.66 76.1445 206.651 76.1445 206.641 76.1445C206.632 76.1445 206.622 76.1445 206.613 76.1445C206.603 76.1445 206.594 76.1445 206.584 76.1445C206.575 76.1445 206.565 76.1445 206.556 76.1445C206.546 76.1445 206.537 76.1445 206.527 76.1445C206.518 76.1445 206.509 76.1445 206.499 76.1445C206.49 76.1445 206.48 76.1445 206.471 76.1445C206.462 76.1445 206.452 76.1445 206.443 76.1445C206.434 76.1445 206.424 76.1445 206.415 76.1445C206.406 76.1445 206.396 76.1445 206.387 76.1445C206.378 76.1445 206.369 76.1445 206.359 76.1445C206.35 76.1445 206.341 76.1445 206.332 76.1445C206.323 76.1445 206.313 76.1445 206.304 76.1445C206.295 76.1445 206.286 76.1445 206.277 76.1445C206.268 76.1445 206.258 76.1445 206.249 76.1445C206.24 76.1445 206.231 76.1445 206.222 76.1445C206.213 76.1445 206.204 76.1445 206.195 76.1445C206.186 76.1445 206.177 76.1445 206.168 76.1445C206.159 76.1445 206.15 76.1445 206.141 76.1445C206.132 76.1445 206.123 76.1445 206.114 76.1445C206.105 76.1445 206.096 76.1445 206.087 76.1445C206.078 76.1445 206.069 76.1445 206.06 76.1445C206.051 76.1445 206.042 76.1445 206.034 76.1445C206.025 76.1445 206.016 76.1445 206.007 76.1445C205.998 76.1445 205.989 76.1445 205.981 76.1445C205.972 76.1445 205.963 76.1445 205.954 76.1445C205.945 76.1445 205.937 76.1445 205.928 76.1445C205.919 76.1445 205.91 76.1445 205.902 76.1445C205.893 76.1445 205.884 76.1445 205.876 76.1445C205.867 76.1445 205.858 76.1445 205.849 76.1445C205.841 76.1445 205.832 76.1445 205.824 76.1445C205.815 76.1445 205.806 76.1445 205.798 76.1445C205.789 76.1445 205.78 76.1445 205.772 76.1445C205.763 76.1445 205.755 76.1445 205.746 76.1445C205.738 76.1445 205.729 76.1445 205.721 76.1445C205.712 76.1445 205.704 76.1445 205.695 76.1445C205.687 76.1445 205.678 76.1445 205.67 76.1445C205.661 76.1445 205.653 76.1445 205.644 76.1445C205.636 76.1445 205.627 76.1445 205.619 76.1445C205.611 76.1445 205.602 76.1445 205.594 76.1445C205.585 76.1445 205.577 76.1445 205.569 76.1445C205.56 76.1445 205.552 76.1445 205.544 76.1445C205.535 76.1445 205.527 76.1445 205.519 76.1445C205.51 76.1445 205.502 76.1445 205.494 76.1445C205.486 76.1445 205.477 76.1445 205.469 76.1445C205.461 76.1445 205.453 76.1445 205.444 76.1445C205.436 76.1445 205.428 76.1445 205.42 76.1445C205.412 76.1445 205.403 76.1445 205.395 76.1445C205.387 76.1445 205.379 76.1445 205.371 76.1445C205.363 76.1445 205.355 76.1445 205.346 76.1445C205.338 76.1445 205.33 76.1445 205.322 76.1445C205.314 76.1445 205.306 76.1445 205.298 76.1445C205.29 76.1445 205.282 76.1445 205.274 76.1445C205.266 76.1445 205.258 76.1445 205.25 76.1445C205.242 76.1445 205.234 76.1445 205.226 76.1445C205.218 76.1445 205.21 76.1445 205.202 76.1445C205.194 76.1445 205.186 76.1445 205.178 76.1445C205.17 76.1445 205.162 76.1445 205.154 76.1445C205.146 76.1445 205.138 76.1445 205.131 76.1445C205.123 76.1445 205.115 76.1445 205.107 76.1445C205.099 76.1445 205.091 76.1445 205.083 76.1445C205.076 76.1445 205.068 76.1445 205.06 76.1445C205.052 76.1445 205.044 76.1445 205.037 76.1445C205.029 76.1445 205.021 76.1445 205.013 76.1445C205.006 76.1445 204.998 76.1445 204.99 76.1445C204.982 76.1445 204.975 76.1445 204.967 76.1445C204.959 76.1445 204.952 76.1445 204.944 76.1445C204.936 76.1445 204.929 76.1445 204.921 76.1445C204.913 76.1445 204.906 76.1445 204.898 76.1445C204.89 76.1445 204.883 76.1445 204.875 76.1445C204.868 76.1445 204.86 76.1445 204.852 76.1445C204.845 76.1445 204.837 76.1445 204.83 76.1445C204.822 76.1445 204.815 76.1445 204.807 76.1445C204.8 76.1445 204.792 76.1445 204.785 76.1445C204.777 76.1445 204.77 76.1445 204.762 76.1445C204.755 76.1445 204.747 76.1445 204.74 76.1445C204.732 76.1445 204.725 76.1445 204.717 76.1445C204.71 76.1445 204.702 76.1445 204.695 76.1445C204.688 76.1445 204.68 76.1445 204.673 76.1445C204.665 76.1445 204.658 76.1445 204.651 76.1445C204.643 76.1445 204.636 76.1445 204.629 76.1445C204.621 76.1445 204.614 76.1445 204.607 76.1445C204.599 76.1445 204.592 76.1445 204.585 76.1445C204.577 76.1445 204.57 76.1445 204.563 76.1445C204.556 76.1445 204.548 76.1445 204.541 76.1445C204.534 76.1445 204.527 76.1445 204.519 76.1445C204.512 76.1445 204.505 76.1445 204.498 76.1445C204.49 76.1445 204.483 76.1445 204.476 76.1445C204.469 76.1445 204.462 76.1445 204.455 76.1445C204.447 76.1445 204.44 76.1445 204.433 76.1445C204.426 76.1445 204.419 76.1445 204.412 76.1445C204.405 76.1445 204.397 76.1445 204.39 76.1445C204.383 76.1445 204.376 76.1445 204.369 76.1445C204.362 76.1445 204.355 76.1445 204.348 76.1445C204.341 76.1445 204.334 76.1445 204.327 76.1445C204.32 76.1445 204.313 76.1445 204.306 76.1445C204.299 76.1445 204.292 76.1445 204.285 76.1445C204.278 76.1445 204.271 76.1445 204.264 76.1445C204.257 76.1445 204.25 76.1445 204.243 76.1445C204.236 76.1445 204.229 76.1445 204.222 76.1445C204.215 76.1445 204.208 76.1445 204.201 76.1445C204.194 76.1445 204.187 76.1445 204.181 76.1445C204.174 76.1445 204.167 76.1445 204.16 76.1445C204.153 76.1445 204.146 76.1445 204.139 76.1445C204.133 76.1445 204.126 76.1445 204.119 76.1445C204.112 76.1445 204.105 76.1445 204.098 76.1445C204.092 76.1445 204.085 76.1445 204.078 76.1445C204.071 76.1445 204.064 76.1445 204.058 76.1445C204.051 76.1445 204.044 76.1445 204.037 76.1445C204.031 76.1445 204.024 76.1445 204.017 76.1445C204.011 76.1445 204.004 76.1445 203.997 76.1445C203.99 76.1445 203.984 76.1445 203.977 76.1445C203.97 76.1445 203.964 76.1445 203.957 76.1445C203.95 76.1445 203.944 76.1445 203.937 76.1445C203.93 76.1445 203.924 76.1445 203.917 76.1445C203.91 76.1445 203.904 76.1445 203.897 76.1445C203.891 76.1445 203.884 76.1445 203.877 76.1445C203.871 76.1445 203.864 76.1445 203.858 76.1445C203.851 76.1445 203.845 76.1445 203.838 76.1445C203.831 76.1445 203.825 76.1445 203.818 76.1445C203.812 76.1445 203.805 76.1445 203.799 76.1445C203.792 76.1445 203.786 76.1445 203.779 76.1445C203.773 76.1445 203.766 76.1445 203.76 76.1445C203.753 76.1445 203.747 76.1445 203.74 76.1445C203.734 76.1445 203.727 76.1445 203.721 76.1445C203.715 76.1445 203.708 76.1445 203.702 76.1445C203.695 76.1445 203.689 76.1445 203.682 76.1445C203.676 76.1445 203.67 76.1445 203.663 76.1445C203.657 76.1445 203.65 76.1445 203.644 76.1445C203.638 76.1445 203.631 76.1445 203.625 76.1445C203.619 76.1445 203.612 76.1445 203.606 76.1445C203.6 76.1445 203.593 76.1445 203.587 76.1445C203.581 76.1445 203.574 76.1445 203.568 76.1445C203.562 76.1445 203.555 76.1445 203.549 76.1445C203.543 76.1445 203.537 76.1445 203.53 76.1445C203.524 76.1445 203.518 76.1445 203.511 76.1445C203.505 76.1445 203.499 76.1445 203.493 76.1445C203.487 76.1445 203.48 76.1445 203.474 76.1445C203.468 76.1445 203.462 76.1445 203.455 76.1445C203.449 76.1445 203.443 76.1445 203.437 76.1445C203.431 76.1445 203.424 76.1445 203.418 76.1445C203.412 76.1445 203.406 76.1445 203.4 76.1445C203.394 76.1445 203.387 76.1445 203.381 76.1445C203.375 76.1445 203.369 76.1445 203.363 76.1445C203.357 76.1445 203.351 76.1445 203.345 76.1445C203.338 76.1445 203.332 76.1445 203.326 76.1445C203.32 76.1445 203.314 76.1445 203.308 76.1445C203.302 76.1445 203.296 76.1445 203.29 76.1445C203.284 76.1445 203.278 76.1445 203.272 76.1445C203.266 76.1445 203.26 76.1445 203.254 76.1445C203.247 76.1445 203.241 76.1445 203.235 76.1445C203.229 76.1445 203.223 76.1445 203.217 76.1445C203.211 76.1445 203.205 76.1445 203.199 76.1445C203.193 76.1445 203.187 76.1445 203.181 76.1445C203.175 76.1445 203.17 76.1445 203.164 76.1445C203.158 76.1445 203.152 76.1445 203.146 76.1445C203.14 76.1445 203.134 76.1445 203.128 76.1445C203.122 76.1445 203.116 76.1445 203.11 76.1445C203.104 76.1445 203.098 76.1445 203.092 76.1445C203.086 76.1445 203.081 76.1445 203.075 76.1445C203.069 76.1445 203.063 76.1445 203.057 76.1445C203.051 76.1445 203.045 76.1445 203.039 76.1445C203.034 76.1445 203.028 76.1445 203.022 76.1445C203.016 76.1445 203.01 76.1445 203.004 76.1445C202.999 76.1445 202.993 76.1445 202.987 76.1445C202.981 76.1445 202.975 76.1445 202.969 76.1445C202.964 76.1445 202.958 76.1445 202.952 76.1445C202.946 76.1445 202.94 76.1445 202.935 76.1445C202.929 76.1445 202.923 76.1445 202.917 76.1445C202.912 76.1445 202.906 76.1445 202.9 76.1445C202.894 76.1445 202.889 76.1445 202.883 76.1445C202.877 76.1445 202.871 76.1445 202.866 76.1445C202.86 76.1445 202.854 76.1445 202.848 76.1445C202.843 76.1445 202.837 76.1445 202.831 76.1445C202.826 76.1445 202.82 76.1445 202.814 76.1445C202.808 76.1445 202.803 76.1445 202.797 76.1445C202.791 76.1445 202.786 76.1445 202.78 76.1445C202.774 76.1445 202.769 76.1445 202.763 76.1445C202.757 76.1445 202.752 76.1445 202.746 76.1445C202.74 76.1445 202.735 76.1445 202.729 76.1445C202.724 76.1445 202.718 76.1445 202.712 76.1445C202.707 76.1445 202.701 76.1445 202.695 76.1445C202.69 76.1445 202.684 76.1445 202.679 76.1445C202.673 76.1445 202.667 76.1445 202.662 76.1445C202.656 76.1445 202.651 76.1445 202.645 76.1445C202.639 76.1445 202.634 76.1445 202.628 76.1445C202.623 76.1445 202.617 76.1445 202.612 76.1445C202.606 76.1445 202.601 76.1445 202.595 76.1445C202.589 76.1445 202.584 76.1445 202.578 76.1445C202.573 76.1445 202.567 76.1445 202.562 76.1445C202.556 76.1445 202.551 76.1445 202.545 76.1445C202.54 76.1445 202.534 76.1445 202.529 76.1445C202.523 76.1445 202.518 76.1445 202.512 76.1445C202.507 76.1445 202.501 76.1445 202.496 76.1445C202.49 76.1445 202.485 76.1445 202.479 76.1445C202.474 76.1445 202.468 76.1445 202.463 76.1445C202.457 76.1445 202.452 76.1445 202.446 76.1445C202.441 76.1445 202.436 76.1445 202.43 76.1445C202.425 76.1445 202.419 76.1445 202.414 76.1445C202.408 76.1445 202.403 76.1445 202.397 76.1445C202.392 76.1445 202.387 76.1445 202.381 76.1445C202.376 76.1445 202.37 76.1445 202.365 76.1445C202.36 76.1445 202.354 76.1445 202.349 76.1445C202.343 76.1445 202.338 76.1445 202.333 76.1445C202.327 76.1445 202.322 76.1445 202.316 76.1445C202.311 76.1445 202.306 76.1445 202.3 76.1445C202.295 76.1445 202.29 76.1445 202.284 76.1445C202.279 76.1445 202.273 76.1445 202.268 76.1445C202.263 76.1445 202.257 76.1445 202.252 76.1445C202.247 76.1445 202.241 76.1445 202.236 76.1445C202.231 76.1445 202.225 76.1445 202.22 76.1445C202.215 76.1445 202.209 76.1445 202.204 76.1445C202.199 76.1445 202.193 76.1445 202.188 76.1445C202.183 76.1445 202.177 76.1445 202.172 76.1445C202.167 76.1445 202.161 76.1445 202.156 76.1445C202.151 76.1445 202.146 76.1445 202.14 76.1445C202.135 76.1445 202.13 76.1445 202.124 76.1445C202.119 76.1445 202.114 76.1445 202.108 76.1445C202.103 76.1445 202.098 76.1445 202.093 76.1445C202.087 76.1445 202.082 76.1445 202.077 76.1445C202.072 76.1445 202.066 76.1445 202.061 76.1445C202.056 76.1445 202.051 76.1445 202.045 76.1445C202.04 76.1445 202.035 76.1445 202.03 76.1445C202.024 76.1445 202.019 76.1445 202.014 76.1445C202.009 76.1445 202.003 76.1445 201.998 76.1445C201.993 76.1445 201.988 76.1445 201.982 76.1445C201.977 76.1445 201.972 76.1445 201.967 76.1445C201.962 76.1445 201.956 76.1445 201.951 76.1445C201.946 76.1445 201.941 76.1445 201.935 76.1445C201.93 76.1445 201.925 76.1445 201.92 76.1445C201.915 76.1445 201.909 76.1445 201.904 76.1445C201.899 76.1445 201.894 76.1445 201.889 76.1445C201.883 76.1445 201.878 76.1445 201.873 76.1445C201.868 76.1445 201.863 76.1445 201.858 76.1445C201.852 76.1445 201.847 76.1445 201.842 76.1445C201.837 76.1445 201.832 76.1445 201.826 76.1445C201.821 76.1445 201.816 76.1445 201.811 76.1445C201.806 76.1445 201.801 76.1445 201.795 76.1445C201.79 76.1445 201.785 76.1445 201.78 76.1445C201.775 76.1445 201.77 76.1445 201.765 76.1445C201.759 76.1445 201.754 76.1445 201.749 76.1445C201.744 76.1445 201.739 76.1445 201.734 76.1445C201.729 76.1445 201.723 76.1445 201.718 76.1445C201.713 76.1445 201.708 76.1445 201.703 76.1445C201.698 76.1445 201.693 76.1445 201.687 76.1445C201.682 76.1445 201.677 76.1445 201.672 76.1445C201.667 76.1445 201.662 76.1445 201.657 76.1445C201.652 76.1445 201.646 76.1445 201.641 76.1445C201.636 76.1445 201.631 76.1445 201.626 76.1445C201.621 76.1445 201.616 76.1445 201.611 76.1445C201.605 76.1445 201.6 76.1445 201.595 76.1445C201.59 76.1445 201.585 76.1445 201.58 76.1445C201.575 76.1445 201.57 76.1445 201.565 76.1445C201.56 76.1445 201.554 76.1445 201.549 76.1445C201.544 76.1445 201.539 76.1445 201.534 76.1445C201.529 76.1445 201.524 76.1445 201.519 76.1445C201.514 76.1445 201.509 76.1445 201.503 76.1445C201.498 76.1445 201.493 76.1445 201.488 76.1445C201.483 76.1445 201.478 76.1445 201.473 76.1445C201.468 76.1445 201.463 76.1445 201.458 76.1445C201.453 76.1445 201.448 76.1445 201.442 76.1445C201.437 76.1445 201.432 76.1445 201.427 76.1445C201.422 76.1445 201.417 76.1445 201.412 76.1445C201.407 76.1445 201.402 76.1445 201.397 76.1445C201.392 76.1445 201.387 76.1445 201.382 76.1445C201.376 76.1445 201.371 76.1445 201.366 76.1445C201.361 76.1445 201.356 76.1445 201.351 76.1445C201.346 76.1445 201.341 76.1445 201.336 76.1445C201.331 76.1445 201.326 76.1445 201.321 76.1445C201.316 76.1445 201.311 76.1445 201.306 76.1445C201.3 76.1445 201.295 76.1445 201.29 76.1445C201.285 76.1445 201.28 76.1445 201.275 76.1445C201.27 76.1445 201.265 76.1445 201.26 76.1445C201.255 76.1445 201.25 76.1445 201.245 76.1445C201.24 76.1445 201.235 76.1445 201.23 76.1445C201.225 76.1445 201.219 76.1445 201.214 76.1445C201.209 76.1445 201.204 76.1445 201.199 76.1445C201.194 76.1445 201.189 76.1445 201.184 76.1445C201.179 76.1445 201.174 76.1445 201.169 76.1445C201.164 76.1445 201.159 76.1445 201.154 76.1445C201.149 76.1445 201.144 76.1445 201.138 76.1445C201.133 76.1445 201.128 76.1445 201.123 76.1445C201.118 76.1445 201.113 76.1445 201.108 76.1445C201.103 76.1445 201.098 76.1445 201.093 76.1445C201.088 76.1445 201.083 76.1445 201.078 76.1445C201.073 76.1445 201.068 76.1445 201.063 76.1445C201.057 76.1445 201.052 76.1445 201.047 76.1445C201.042 76.1445 201.037 76.1445 201.032 76.1445C201.027 76.1445 201.022 76.1445 201.017 76.1445C201.012 76.1445 201.007 76.1445 201.002 76.1445C200.997 76.1445 200.992 76.1445 200.987 76.1445C200.982 76.1445 200.976 76.1445 200.971 76.1445C200.966 76.1445 200.961 76.1445 200.956 76.1445C200.951 76.1445 200.946 76.1445 200.941 76.1445C200.936 76.1445 200.931 76.1445 200.926 76.1445C200.921 76.1445 200.916 76.1445 200.911 76.1445C200.905 76.1445 200.9 76.1445 200.895 76.1445C200.89 76.1445 200.885 76.1445 200.88 76.1445C200.875 76.1445 200.87 76.1445 200.865 76.1445C200.86 76.1445 200.855 76.1445 200.85 76.1445C200.844 76.1445 200.839 76.1445 200.834 76.1445C200.829 76.1445 200.824 76.1445 200.819 76.1445C200.814 76.1445 200.809 76.1445 200.804 76.1445C200.799 76.1445 200.794 76.1445 200.788 76.1445C200.783 76.1445 200.778 76.1445 200.773 76.1445C200.768 76.1445 200.763 76.1445 200.758 76.1445C200.753 76.1445 200.748 76.1445 200.743 76.1445C200.738 76.1445 200.732 76.1445 200.727 76.1445C200.722 76.1445 200.717 76.1445 200.712 76.1445C200.707 76.1445 200.702 76.1445 200.697 76.1445C200.692 76.1445 200.686 76.1445 200.681 76.1445C200.676 76.1445 200.671 76.1445 200.666 76.1445C200.661 76.1445 200.656 76.1445 200.651 76.1445C200.645 76.1445 200.64 76.1445 200.635 76.1445C200.63 76.1445 200.625 76.1445 200.62 76.1445C200.615 76.1445 200.61 76.1445 200.604 76.1445C200.599 76.1445 200.594 76.1445 200.589 76.1445C200.584 76.1445 200.579 76.1445 200.574 76.1445C200.568 76.1445 200.563 76.1445 200.558 76.1445C200.553 76.1445 200.548 76.1445 200.543 76.1445C200.538 76.1445 200.532 76.1445 200.527 76.1445C200.522 76.1445 200.517 76.1445 200.512 76.1445C200.507 76.1445 200.501 76.1445 200.496 76.1445C200.491 76.1445 200.486 76.1445 200.481 76.1445C200.476 76.1445 200.47 76.1445 200.465 76.1445C200.46 76.1445 200.455 76.1445 200.45 76.1445C200.444 76.1445 200.439 76.1445 200.434 76.1445C200.429 76.1445 200.424 76.1445 200.419 76.1445C200.413 76.1445 200.408 76.1445 200.403 76.1445C200.398 76.1445 200.393 76.1445 200.387 76.1445C200.382 76.1445 200.377 76.1445 200.372 76.1445C200.366 76.1445 200.361 76.1445 200.356 76.1445C200.351 76.1445 200.346 76.1445 200.34 76.1445C200.335 76.1445 200.33 76.1445 200.325 76.1445C200.319 76.1445 200.314 76.1445 200.309 76.1445C200.304 76.1445 200.299 76.1445 200.293 76.1445C200.288 76.1445 200.283 76.1445 200.278 76.1445C200.272 76.1445 200.267 76.1445 200.262 76.1445C200.257 76.1445 200.251 76.1445 200.246 76.1445C200.241 76.1445 200.236 76.1445 200.23 76.1445C200.225 76.1445 200.22 76.1445 200.214 76.1445C200.209 76.1445 200.204 76.1445 200.199 76.1445C200.193 76.1445 200.188 76.1445 200.183 76.1445C200.177 76.1445 200.172 76.1445 200.167 76.1445C200.162 76.1445 200.156 76.1445 200.151 76.1445C200.146 76.1445 200.14 76.1445 200.135 76.1445C200.13 76.1445 200.124 76.1445 200.119 76.1445C200.114 76.1445 200.108 76.1445 200.103 76.1445C200.098 76.1445 200.092 76.1445 200.087 76.1445C200.082 76.1445 200.076 76.1445 200.071 76.1445C200.066 76.1445 200.06 76.1445 200.055 76.1445C200.05 76.1445 200.044 76.1445 200.039 76.1445C200.034 76.1445 200.028 76.1445 200.023 76.1445C200.017 76.1445 200.012 76.1445 200.007 76.1445C200.001 76.1445 199.996 76.1445 199.991 76.1445C199.985 76.1445 199.98 76.1445 199.974 76.1445C199.969 76.1445 199.964 76.1445 199.958 76.1445C199.953 76.1445 199.947 76.1445 199.942 76.1445C199.937 76.1445 199.931 76.1445 199.926 76.1445C199.92 76.1445 199.915 76.1445 199.909 76.1445C199.904 76.1445 199.899 76.1445 199.893 76.1445C199.888 76.1445 199.882 76.1445 199.877 76.1445C199.871 76.1445 199.866 76.1445 199.86 76.1445C199.855 76.1445 199.85 76.1445 199.844 76.1445C199.839 76.1445 199.833 76.1445 199.828 76.1445C199.822 76.1445 199.817 76.1445 199.811 76.1445C199.806 76.1445 199.8 76.1445 199.795 76.1445C199.789 76.1445 199.784 76.1445 199.778 76.1445C199.773 76.1445 199.767 76.1445 199.762 76.1445C199.756 76.1445 199.751 76.1445 199.745 76.1445C199.74 76.1445 199.734 76.1445 199.728 76.1445C199.723 76.1445 199.717 76.1445 199.712 76.1445C199.706 76.1445 199.701 76.1445 199.695 76.1445C199.69 76.1445 199.684 76.1445 199.678 76.1445C199.673 76.1445 199.667 76.1445 199.662 76.1445C199.656 76.1445 199.651 76.1445 199.645 76.1445C199.639 76.1445 199.634 76.1445 199.628 76.1445C199.623 76.1445 199.617 76.1445 199.611 76.1445C199.606 76.1445 199.6 76.1445 199.594 76.1445C199.589 76.1445 199.583 76.1445 199.578 76.1445C199.572 76.1445 199.566 76.1445 199.561 76.1445C199.555 76.1445 199.549 76.1445 199.544 76.1445C199.538 76.1445 199.532 76.1445 199.527 76.1445C199.521 76.1445 199.515 76.1445 199.51 76.1445C199.504 76.1445 199.498 76.1445 199.492 76.1445C199.487 76.1445 199.481 76.1445 199.475 76.1445C199.47 76.1445 199.464 76.1445 199.458 76.1445C199.452 76.1445 199.447 76.1445 199.441 76.1445C199.435 76.1445 199.43 76.1445 199.424 76.1445C199.418 76.1445 199.412 76.1445 199.407 76.1445C199.401 76.1445 199.395 76.1445 199.389 76.1445C199.383 76.1445 199.378 76.1445 199.372 76.1445C199.366 76.1445 199.36 76.1445 199.354 76.1445C199.349 76.1445 199.343 76.1445 199.337 76.1445C199.331 76.1445 199.325 76.1445 199.32 76.1445C199.314 76.1445 199.308 76.1445 199.302 76.1445C199.296 76.1445 199.29 76.1445 199.285 76.1445C199.279 76.1445 199.273 76.1445 199.267 76.1445C199.261 76.1445 199.255 76.1445 199.249 76.1445C199.243 76.1445 199.238 76.1445 199.232 76.1445C199.226 76.1445 199.22 76.1445 199.214 76.1445C199.208 76.1445 199.202 76.1445 199.196 76.1445C199.19 76.1445 199.184 76.1445 199.178 76.1445C199.173 76.1445 199.167 76.1445 199.161 76.1445C199.155 76.1445 199.149 76.1445 199.143 76.1445C199.137 76.1445 199.131 76.1445 199.125 76.1445C199.119 76.1445 199.113 76.1445 199.107 76.1445C199.101 76.1445 199.095 76.1445 199.089 76.1445C199.083 76.1445 199.077 76.1445 199.071 76.1445C199.065 76.1445 199.059 76.1445 199.053 76.1445C199.047 76.1445 199.041 76.1445 199.035 76.1445C199.029 76.1445 199.022 76.1445 199.016 76.1445C199.01 76.1445 199.004 76.1445 198.998 76.1445C198.992 76.1445 198.986 76.1445 198.98 76.1445C198.974 76.1445 198.968 76.1445 198.962 76.1445C198.955 76.1445 198.949 76.1445 198.943 76.1445C198.937 76.1445 198.931 76.1445 198.925 76.1445C198.919 76.1445 198.912 76.1445 198.906 76.1445C198.9 76.1445 198.894 76.1445 198.888 76.1445C198.882 76.1445 198.875 76.1445 198.869 76.1445C198.863 76.1445 198.857 76.1445 198.851 76.1445C198.844 76.1445 198.838 76.1445 198.832 76.1445C198.826 76.1445 198.82 76.1445 198.813 76.1445C198.807 76.1445 198.801 76.1445 198.795 76.1445C198.788 76.1445 198.782 76.1445 198.776 76.1445C198.769 76.1445 198.763 76.1445 198.757 76.1445C198.751 76.1445 198.744 76.1445 198.738 76.1445C198.732 76.1445 198.725 76.1445 198.719 76.1445C198.713 76.1445 198.706 76.1445 198.7 76.1445C198.694 76.1445 198.687 76.1445 198.681 76.1445C198.675 76.1445 198.668 76.1445 198.662 76.1445C198.655 76.1445 198.649 76.1445 198.643 76.1445C198.636 76.1445 198.63 76.1445 198.623 76.1445C198.617 76.1445 198.611 76.1445 198.604 76.1445C198.598 76.1445 198.591 76.1445 198.585 76.1445C198.578 76.1445 198.572 76.1445 198.565 76.1445C198.559 76.1445 198.552 76.1445 198.546 76.1445C198.539 76.1445 198.533 76.1445 198.526 76.1445C198.52 76.1445 198.513 76.1445 198.507 76.1445C198.5 76.1445 198.494 76.1445 198.487 76.1445C198.481 76.1445 198.474 76.1445 198.468 76.1445C198.461 76.1445 198.455 76.1445 198.448 76.1445C198.441 76.1445 198.435 76.1445 198.428 76.1445C198.422 76.1445 198.415 76.1445 198.408 76.1445C198.402 76.1445 198.395 76.1445 198.389 76.1445C198.382 76.1445 198.375 76.1445 198.369 76.1445C198.362 76.1445 198.355 76.1445 198.349 76.1445C198.342 76.1445 198.335 76.1445 198.329 76.1445C198.322 76.1445 198.315 76.1445 198.308 76.1445C198.302 76.1445 198.295 76.1445 198.288 76.1445C198.282 76.1445 198.275 76.1445 198.268 76.1445C198.261 76.1445 198.254 76.1445 198.248 76.1445C198.241 76.1445 198.234 76.1445 198.227 76.1445V78.1445C198.234 78.1445 198.241 78.1445 198.248 78.1445C198.254 78.1445 198.261 78.1445 198.268 78.1445C198.275 78.1445 198.282 78.1445 198.288 78.1445C198.295 78.1445 198.302 78.1445 198.308 78.1445C198.315 78.1445 198.322 78.1445 198.329 78.1445C198.335 78.1445 198.342 78.1445 198.349 78.1445C198.355 78.1445 198.362 78.1445 198.369 78.1445C198.375 78.1445 198.382 78.1445 198.389 78.1445C198.395 78.1445 198.402 78.1445 198.408 78.1445C198.415 78.1445 198.422 78.1445 198.428 78.1445C198.435 78.1445 198.441 78.1445 198.448 78.1445C198.455 78.1445 198.461 78.1445 198.468 78.1445C198.474 78.1445 198.481 78.1445 198.487 78.1445C198.494 78.1445 198.5 78.1445 198.507 78.1445C198.513 78.1445 198.52 78.1445 198.526 78.1445C198.533 78.1445 198.539 78.1445 198.546 78.1445C198.552 78.1445 198.559 78.1445 198.565 78.1445C198.572 78.1445 198.578 78.1445 198.585 78.1445C198.591 78.1445 198.598 78.1445 198.604 78.1445C198.611 78.1445 198.617 78.1445 198.623 78.1445C198.63 78.1445 198.636 78.1445 198.643 78.1445C198.649 78.1445 198.655 78.1445 198.662 78.1445C198.668 78.1445 198.675 78.1445 198.681 78.1445C198.687 78.1445 198.694 78.1445 198.7 78.1445C198.706 78.1445 198.713 78.1445 198.719 78.1445C198.725 78.1445 198.732 78.1445 198.738 78.1445C198.744 78.1445 198.751 78.1445 198.757 78.1445C198.763 78.1445 198.769 78.1445 198.776 78.1445C198.782 78.1445 198.788 78.1445 198.795 78.1445C198.801 78.1445 198.807 78.1445 198.813 78.1445C198.82 78.1445 198.826 78.1445 198.832 78.1445C198.838 78.1445 198.844 78.1445 198.851 78.1445C198.857 78.1445 198.863 78.1445 198.869 78.1445C198.875 78.1445 198.882 78.1445 198.888 78.1445C198.894 78.1445 198.9 78.1445 198.906 78.1445C198.912 78.1445 198.919 78.1445 198.925 78.1445C198.931 78.1445 198.937 78.1445 198.943 78.1445C198.949 78.1445 198.955 78.1445 198.962 78.1445C198.968 78.1445 198.974 78.1445 198.98 78.1445C198.986 78.1445 198.992 78.1445 198.998 78.1445C199.004 78.1445 199.01 78.1445 199.016 78.1445C199.022 78.1445 199.029 78.1445 199.035 78.1445C199.041 78.1445 199.047 78.1445 199.053 78.1445C199.059 78.1445 199.065 78.1445 199.071 78.1445C199.077 78.1445 199.083 78.1445 199.089 78.1445C199.095 78.1445 199.101 78.1445 199.107 78.1445C199.113 78.1445 199.119 78.1445 199.125 78.1445C199.131 78.1445 199.137 78.1445 199.143 78.1445C199.149 78.1445 199.155 78.1445 199.161 78.1445C199.167 78.1445 199.173 78.1445 199.178 78.1445C199.184 78.1445 199.19 78.1445 199.196 78.1445C199.202 78.1445 199.208 78.1445 199.214 78.1445C199.22 78.1445 199.226 78.1445 199.232 78.1445C199.238 78.1445 199.243 78.1445 199.249 78.1445C199.255 78.1445 199.261 78.1445 199.267 78.1445C199.273 78.1445 199.279 78.1445 199.285 78.1445C199.29 78.1445 199.296 78.1445 199.302 78.1445C199.308 78.1445 199.314 78.1445 199.32 78.1445C199.325 78.1445 199.331 78.1445 199.337 78.1445C199.343 78.1445 199.349 78.1445 199.354 78.1445C199.36 78.1445 199.366 78.1445 199.372 78.1445C199.378 78.1445 199.383 78.1445 199.389 78.1445C199.395 78.1445 199.401 78.1445 199.407 78.1445C199.412 78.1445 199.418 78.1445 199.424 78.1445C199.43 78.1445 199.435 78.1445 199.441 78.1445C199.447 78.1445 199.452 78.1445 199.458 78.1445C199.464 78.1445 199.47 78.1445 199.475 78.1445C199.481 78.1445 199.487 78.1445 199.492 78.1445C199.498 78.1445 199.504 78.1445 199.51 78.1445C199.515 78.1445 199.521 78.1445 199.527 78.1445C199.532 78.1445 199.538 78.1445 199.544 78.1445C199.549 78.1445 199.555 78.1445 199.561 78.1445C199.566 78.1445 199.572 78.1445 199.578 78.1445C199.583 78.1445 199.589 78.1445 199.594 78.1445C199.6 78.1445 199.606 78.1445 199.611 78.1445C199.617 78.1445 199.623 78.1445 199.628 78.1445C199.634 78.1445 199.639 78.1445 199.645 78.1445C199.651 78.1445 199.656 78.1445 199.662 78.1445C199.667 78.1445 199.673 78.1445 199.678 78.1445C199.684 78.1445 199.69 78.1445 199.695 78.1445C199.701 78.1445 199.706 78.1445 199.712 78.1445C199.717 78.1445 199.723 78.1445 199.728 78.1445C199.734 78.1445 199.74 78.1445 199.745 78.1445C199.751 78.1445 199.756 78.1445 199.762 78.1445C199.767 78.1445 199.773 78.1445 199.778 78.1445C199.784 78.1445 199.789 78.1445 199.795 78.1445C199.8 78.1445 199.806 78.1445 199.811 78.1445C199.817 78.1445 199.822 78.1445 199.828 78.1445C199.833 78.1445 199.839 78.1445 199.844 78.1445C199.85 78.1445 199.855 78.1445 199.86 78.1445C199.866 78.1445 199.871 78.1445 199.877 78.1445C199.882 78.1445 199.888 78.1445 199.893 78.1445C199.899 78.1445 199.904 78.1445 199.909 78.1445C199.915 78.1445 199.92 78.1445 199.926 78.1445C199.931 78.1445 199.937 78.1445 199.942 78.1445C199.947 78.1445 199.953 78.1445 199.958 78.1445C199.964 78.1445 199.969 78.1445 199.974 78.1445C199.98 78.1445 199.985 78.1445 199.991 78.1445C199.996 78.1445 200.001 78.1445 200.007 78.1445C200.012 78.1445 200.017 78.1445 200.023 78.1445C200.028 78.1445 200.034 78.1445 200.039 78.1445C200.044 78.1445 200.05 78.1445 200.055 78.1445C200.06 78.1445 200.066 78.1445 200.071 78.1445C200.076 78.1445 200.082 78.1445 200.087 78.1445C200.092 78.1445 200.098 78.1445 200.103 78.1445C200.108 78.1445 200.114 78.1445 200.119 78.1445C200.124 78.1445 200.13 78.1445 200.135 78.1445C200.14 78.1445 200.146 78.1445 200.151 78.1445C200.156 78.1445 200.162 78.1445 200.167 78.1445C200.172 78.1445 200.177 78.1445 200.183 78.1445C200.188 78.1445 200.193 78.1445 200.199 78.1445C200.204 78.1445 200.209 78.1445 200.214 78.1445C200.22 78.1445 200.225 78.1445 200.23 78.1445C200.236 78.1445 200.241 78.1445 200.246 78.1445C200.251 78.1445 200.257 78.1445 200.262 78.1445C200.267 78.1445 200.272 78.1445 200.278 78.1445C200.283 78.1445 200.288 78.1445 200.293 78.1445C200.299 78.1445 200.304 78.1445 200.309 78.1445C200.314 78.1445 200.319 78.1445 200.325 78.1445C200.33 78.1445 200.335 78.1445 200.34 78.1445C200.346 78.1445 200.351 78.1445 200.356 78.1445C200.361 78.1445 200.366 78.1445 200.372 78.1445C200.377 78.1445 200.382 78.1445 200.387 78.1445C200.393 78.1445 200.398 78.1445 200.403 78.1445C200.408 78.1445 200.413 78.1445 200.419 78.1445C200.424 78.1445 200.429 78.1445 200.434 78.1445C200.439 78.1445 200.444 78.1445 200.45 78.1445C200.455 78.1445 200.46 78.1445 200.465 78.1445C200.47 78.1445 200.476 78.1445 200.481 78.1445C200.486 78.1445 200.491 78.1445 200.496 78.1445C200.501 78.1445 200.507 78.1445 200.512 78.1445C200.517 78.1445 200.522 78.1445 200.527 78.1445C200.532 78.1445 200.538 78.1445 200.543 78.1445C200.548 78.1445 200.553 78.1445 200.558 78.1445C200.563 78.1445 200.568 78.1445 200.574 78.1445C200.579 78.1445 200.584 78.1445 200.589 78.1445C200.594 78.1445 200.599 78.1445 200.604 78.1445C200.61 78.1445 200.615 78.1445 200.62 78.1445C200.625 78.1445 200.63 78.1445 200.635 78.1445C200.64 78.1445 200.645 78.1445 200.651 78.1445C200.656 78.1445 200.661 78.1445 200.666 78.1445C200.671 78.1445 200.676 78.1445 200.681 78.1445C200.686 78.1445 200.692 78.1445 200.697 78.1445C200.702 78.1445 200.707 78.1445 200.712 78.1445C200.717 78.1445 200.722 78.1445 200.727 78.1445C200.732 78.1445 200.738 78.1445 200.743 78.1445C200.748 78.1445 200.753 78.1445 200.758 78.1445C200.763 78.1445 200.768 78.1445 200.773 78.1445C200.778 78.1445 200.783 78.1445 200.788 78.1445C200.794 78.1445 200.799 78.1445 200.804 78.1445C200.809 78.1445 200.814 78.1445 200.819 78.1445C200.824 78.1445 200.829 78.1445 200.834 78.1445C200.839 78.1445 200.844 78.1445 200.85 78.1445C200.855 78.1445 200.86 78.1445 200.865 78.1445C200.87 78.1445 200.875 78.1445 200.88 78.1445C200.885 78.1445 200.89 78.1445 200.895 78.1445C200.9 78.1445 200.905 78.1445 200.911 78.1445C200.916 78.1445 200.921 78.1445 200.926 78.1445C200.931 78.1445 200.936 78.1445 200.941 78.1445C200.946 78.1445 200.951 78.1445 200.956 78.1445C200.961 78.1445 200.966 78.1445 200.971 78.1445C200.976 78.1445 200.982 78.1445 200.987 78.1445C200.992 78.1445 200.997 78.1445 201.002 78.1445C201.007 78.1445 201.012 78.1445 201.017 78.1445C201.022 78.1445 201.027 78.1445 201.032 78.1445C201.037 78.1445 201.042 78.1445 201.047 78.1445C201.052 78.1445 201.057 78.1445 201.063 78.1445C201.068 78.1445 201.073 78.1445 201.078 78.1445C201.083 78.1445 201.088 78.1445 201.093 78.1445C201.098 78.1445 201.103 78.1445 201.108 78.1445C201.113 78.1445 201.118 78.1445 201.123 78.1445C201.128 78.1445 201.133 78.1445 201.138 78.1445C201.144 78.1445 201.149 78.1445 201.154 78.1445C201.159 78.1445 201.164 78.1445 201.169 78.1445C201.174 78.1445 201.179 78.1445 201.184 78.1445C201.189 78.1445 201.194 78.1445 201.199 78.1445C201.204 78.1445 201.209 78.1445 201.214 78.1445C201.219 78.1445 201.225 78.1445 201.23 78.1445C201.235 78.1445 201.24 78.1445 201.245 78.1445C201.25 78.1445 201.255 78.1445 201.26 78.1445C201.265 78.1445 201.27 78.1445 201.275 78.1445C201.28 78.1445 201.285 78.1445 201.29 78.1445C201.295 78.1445 201.3 78.1445 201.306 78.1445C201.311 78.1445 201.316 78.1445 201.321 78.1445C201.326 78.1445 201.331 78.1445 201.336 78.1445C201.341 78.1445 201.346 78.1445 201.351 78.1445C201.356 78.1445 201.361 78.1445 201.366 78.1445C201.371 78.1445 201.376 78.1445 201.382 78.1445C201.387 78.1445 201.392 78.1445 201.397 78.1445C201.402 78.1445 201.407 78.1445 201.412 78.1445C201.417 78.1445 201.422 78.1445 201.427 78.1445C201.432 78.1445 201.437 78.1445 201.442 78.1445C201.448 78.1445 201.453 78.1445 201.458 78.1445C201.463 78.1445 201.468 78.1445 201.473 78.1445C201.478 78.1445 201.483 78.1445 201.488 78.1445C201.493 78.1445 201.498 78.1445 201.503 78.1445C201.509 78.1445 201.514 78.1445 201.519 78.1445C201.524 78.1445 201.529 78.1445 201.534 78.1445C201.539 78.1445 201.544 78.1445 201.549 78.1445C201.554 78.1445 201.56 78.1445 201.565 78.1445C201.57 78.1445 201.575 78.1445 201.58 78.1445C201.585 78.1445 201.59 78.1445 201.595 78.1445C201.6 78.1445 201.605 78.1445 201.611 78.1445C201.616 78.1445 201.621 78.1445 201.626 78.1445C201.631 78.1445 201.636 78.1445 201.641 78.1445C201.646 78.1445 201.652 78.1445 201.657 78.1445C201.662 78.1445 201.667 78.1445 201.672 78.1445C201.677 78.1445 201.682 78.1445 201.687 78.1445C201.693 78.1445 201.698 78.1445 201.703 78.1445C201.708 78.1445 201.713 78.1445 201.718 78.1445C201.723 78.1445 201.729 78.1445 201.734 78.1445C201.739 78.1445 201.744 78.1445 201.749 78.1445C201.754 78.1445 201.759 78.1445 201.765 78.1445C201.77 78.1445 201.775 78.1445 201.78 78.1445C201.785 78.1445 201.79 78.1445 201.795 78.1445C201.801 78.1445 201.806 78.1445 201.811 78.1445C201.816 78.1445 201.821 78.1445 201.826 78.1445C201.832 78.1445 201.837 78.1445 201.842 78.1445C201.847 78.1445 201.852 78.1445 201.858 78.1445C201.863 78.1445 201.868 78.1445 201.873 78.1445C201.878 78.1445 201.883 78.1445 201.889 78.1445C201.894 78.1445 201.899 78.1445 201.904 78.1445C201.909 78.1445 201.915 78.1445 201.92 78.1445C201.925 78.1445 201.93 78.1445 201.935 78.1445C201.941 78.1445 201.946 78.1445 201.951 78.1445C201.956 78.1445 201.962 78.1445 201.967 78.1445C201.972 78.1445 201.977 78.1445 201.982 78.1445C201.988 78.1445 201.993 78.1445 201.998 78.1445C202.003 78.1445 202.009 78.1445 202.014 78.1445C202.019 78.1445 202.024 78.1445 202.03 78.1445C202.035 78.1445 202.04 78.1445 202.045 78.1445C202.051 78.1445 202.056 78.1445 202.061 78.1445C202.066 78.1445 202.072 78.1445 202.077 78.1445C202.082 78.1445 202.087 78.1445 202.093 78.1445C202.098 78.1445 202.103 78.1445 202.108 78.1445C202.114 78.1445 202.119 78.1445 202.124 78.1445C202.13 78.1445 202.135 78.1445 202.14 78.1445C202.146 78.1445 202.151 78.1445 202.156 78.1445C202.161 78.1445 202.167 78.1445 202.172 78.1445C202.177 78.1445 202.183 78.1445 202.188 78.1445C202.193 78.1445 202.199 78.1445 202.204 78.1445C202.209 78.1445 202.215 78.1445 202.22 78.1445C202.225 78.1445 202.231 78.1445 202.236 78.1445C202.241 78.1445 202.247 78.1445 202.252 78.1445C202.257 78.1445 202.263 78.1445 202.268 78.1445C202.273 78.1445 202.279 78.1445 202.284 78.1445C202.29 78.1445 202.295 78.1445 202.3 78.1445C202.306 78.1445 202.311 78.1445 202.316 78.1445C202.322 78.1445 202.327 78.1445 202.333 78.1445C202.338 78.1445 202.343 78.1445 202.349 78.1445C202.354 78.1445 202.36 78.1445 202.365 78.1445C202.37 78.1445 202.376 78.1445 202.381 78.1445C202.387 78.1445 202.392 78.1445 202.397 78.1445C202.403 78.1445 202.408 78.1445 202.414 78.1445C202.419 78.1445 202.425 78.1445 202.43 78.1445C202.436 78.1445 202.441 78.1445 202.446 78.1445C202.452 78.1445 202.457 78.1445 202.463 78.1445C202.468 78.1445 202.474 78.1445 202.479 78.1445C202.485 78.1445 202.49 78.1445 202.496 78.1445C202.501 78.1445 202.507 78.1445 202.512 78.1445C202.518 78.1445 202.523 78.1445 202.529 78.1445C202.534 78.1445 202.54 78.1445 202.545 78.1445C202.551 78.1445 202.556 78.1445 202.562 78.1445C202.567 78.1445 202.573 78.1445 202.578 78.1445C202.584 78.1445 202.589 78.1445 202.595 78.1445C202.601 78.1445 202.606 78.1445 202.612 78.1445C202.617 78.1445 202.623 78.1445 202.628 78.1445C202.634 78.1445 202.639 78.1445 202.645 78.1445C202.651 78.1445 202.656 78.1445 202.662 78.1445C202.667 78.1445 202.673 78.1445 202.679 78.1445C202.684 78.1445 202.69 78.1445 202.695 78.1445C202.701 78.1445 202.707 78.1445 202.712 78.1445C202.718 78.1445 202.724 78.1445 202.729 78.1445C202.735 78.1445 202.74 78.1445 202.746 78.1445C202.752 78.1445 202.757 78.1445 202.763 78.1445C202.769 78.1445 202.774 78.1445 202.78 78.1445C202.786 78.1445 202.791 78.1445 202.797 78.1445C202.803 78.1445 202.808 78.1445 202.814 78.1445C202.82 78.1445 202.826 78.1445 202.831 78.1445C202.837 78.1445 202.843 78.1445 202.848 78.1445C202.854 78.1445 202.86 78.1445 202.866 78.1445C202.871 78.1445 202.877 78.1445 202.883 78.1445C202.889 78.1445 202.894 78.1445 202.9 78.1445C202.906 78.1445 202.912 78.1445 202.917 78.1445C202.923 78.1445 202.929 78.1445 202.935 78.1445C202.94 78.1445 202.946 78.1445 202.952 78.1445C202.958 78.1445 202.964 78.1445 202.969 78.1445C202.975 78.1445 202.981 78.1445 202.987 78.1445C202.993 78.1445 202.999 78.1445 203.004 78.1445C203.01 78.1445 203.016 78.1445 203.022 78.1445C203.028 78.1445 203.034 78.1445 203.039 78.1445C203.045 78.1445 203.051 78.1445 203.057 78.1445C203.063 78.1445 203.069 78.1445 203.075 78.1445C203.081 78.1445 203.086 78.1445 203.092 78.1445C203.098 78.1445 203.104 78.1445 203.11 78.1445C203.116 78.1445 203.122 78.1445 203.128 78.1445C203.134 78.1445 203.14 78.1445 203.146 78.1445C203.152 78.1445 203.158 78.1445 203.164 78.1445C203.17 78.1445 203.175 78.1445 203.181 78.1445C203.187 78.1445 203.193 78.1445 203.199 78.1445C203.205 78.1445 203.211 78.1445 203.217 78.1445C203.223 78.1445 203.229 78.1445 203.235 78.1445C203.241 78.1445 203.247 78.1445 203.254 78.1445C203.26 78.1445 203.266 78.1445 203.272 78.1445C203.278 78.1445 203.284 78.1445 203.29 78.1445C203.296 78.1445 203.302 78.1445 203.308 78.1445C203.314 78.1445 203.32 78.1445 203.326 78.1445C203.332 78.1445 203.338 78.1445 203.345 78.1445C203.351 78.1445 203.357 78.1445 203.363 78.1445C203.369 78.1445 203.375 78.1445 203.381 78.1445C203.387 78.1445 203.394 78.1445 203.4 78.1445C203.406 78.1445 203.412 78.1445 203.418 78.1445C203.424 78.1445 203.431 78.1445 203.437 78.1445C203.443 78.1445 203.449 78.1445 203.455 78.1445C203.462 78.1445 203.468 78.1445 203.474 78.1445C203.48 78.1445 203.487 78.1445 203.493 78.1445C203.499 78.1445 203.505 78.1445 203.511 78.1445C203.518 78.1445 203.524 78.1445 203.53 78.1445C203.537 78.1445 203.543 78.1445 203.549 78.1445C203.555 78.1445 203.562 78.1445 203.568 78.1445C203.574 78.1445 203.581 78.1445 203.587 78.1445C203.593 78.1445 203.6 78.1445 203.606 78.1445C203.612 78.1445 203.619 78.1445 203.625 78.1445C203.631 78.1445 203.638 78.1445 203.644 78.1445C203.65 78.1445 203.657 78.1445 203.663 78.1445C203.67 78.1445 203.676 78.1445 203.682 78.1445C203.689 78.1445 203.695 78.1445 203.702 78.1445C203.708 78.1445 203.715 78.1445 203.721 78.1445C203.727 78.1445 203.734 78.1445 203.74 78.1445C203.747 78.1445 203.753 78.1445 203.76 78.1445C203.766 78.1445 203.773 78.1445 203.779 78.1445C203.786 78.1445 203.792 78.1445 203.799 78.1445C203.805 78.1445 203.812 78.1445 203.818 78.1445C203.825 78.1445 203.831 78.1445 203.838 78.1445C203.845 78.1445 203.851 78.1445 203.858 78.1445C203.864 78.1445 203.871 78.1445 203.877 78.1445C203.884 78.1445 203.891 78.1445 203.897 78.1445C203.904 78.1445 203.91 78.1445 203.917 78.1445C203.924 78.1445 203.93 78.1445 203.937 78.1445C203.944 78.1445 203.95 78.1445 203.957 78.1445C203.964 78.1445 203.97 78.1445 203.977 78.1445C203.984 78.1445 203.99 78.1445 203.997 78.1445C204.004 78.1445 204.011 78.1445 204.017 78.1445C204.024 78.1445 204.031 78.1445 204.037 78.1445C204.044 78.1445 204.051 78.1445 204.058 78.1445C204.064 78.1445 204.071 78.1445 204.078 78.1445C204.085 78.1445 204.092 78.1445 204.098 78.1445C204.105 78.1445 204.112 78.1445 204.119 78.1445C204.126 78.1445 204.133 78.1445 204.139 78.1445C204.146 78.1445 204.153 78.1445 204.16 78.1445C204.167 78.1445 204.174 78.1445 204.181 78.1445C204.187 78.1445 204.194 78.1445 204.201 78.1445C204.208 78.1445 204.215 78.1445 204.222 78.1445C204.229 78.1445 204.236 78.1445 204.243 78.1445C204.25 78.1445 204.257 78.1445 204.264 78.1445C204.271 78.1445 204.278 78.1445 204.285 78.1445C204.292 78.1445 204.299 78.1445 204.306 78.1445C204.313 78.1445 204.32 78.1445 204.327 78.1445C204.334 78.1445 204.341 78.1445 204.348 78.1445C204.355 78.1445 204.362 78.1445 204.369 78.1445C204.376 78.1445 204.383 78.1445 204.39 78.1445C204.397 78.1445 204.405 78.1445 204.412 78.1445C204.419 78.1445 204.426 78.1445 204.433 78.1445C204.44 78.1445 204.447 78.1445 204.455 78.1445C204.462 78.1445 204.469 78.1445 204.476 78.1445C204.483 78.1445 204.49 78.1445 204.498 78.1445C204.505 78.1445 204.512 78.1445 204.519 78.1445C204.527 78.1445 204.534 78.1445 204.541 78.1445C204.548 78.1445 204.556 78.1445 204.563 78.1445C204.57 78.1445 204.577 78.1445 204.585 78.1445C204.592 78.1445 204.599 78.1445 204.607 78.1445C204.614 78.1445 204.621 78.1445 204.629 78.1445C204.636 78.1445 204.643 78.1445 204.651 78.1445C204.658 78.1445 204.665 78.1445 204.673 78.1445C204.68 78.1445 204.688 78.1445 204.695 78.1445C204.702 78.1445 204.71 78.1445 204.717 78.1445C204.725 78.1445 204.732 78.1445 204.74 78.1445C204.747 78.1445 204.755 78.1445 204.762 78.1445C204.77 78.1445 204.777 78.1445 204.785 78.1445C204.792 78.1445 204.8 78.1445 204.807 78.1445C204.815 78.1445 204.822 78.1445 204.83 78.1445C204.837 78.1445 204.845 78.1445 204.852 78.1445C204.86 78.1445 204.868 78.1445 204.875 78.1445C204.883 78.1445 204.89 78.1445 204.898 78.1445C204.906 78.1445 204.913 78.1445 204.921 78.1445C204.929 78.1445 204.936 78.1445 204.944 78.1445C204.952 78.1445 204.959 78.1445 204.967 78.1445C204.975 78.1445 204.982 78.1445 204.99 78.1445C204.998 78.1445 205.006 78.1445 205.013 78.1445C205.021 78.1445 205.029 78.1445 205.037 78.1445C205.044 78.1445 205.052 78.1445 205.06 78.1445C205.068 78.1445 205.076 78.1445 205.083 78.1445C205.091 78.1445 205.099 78.1445 205.107 78.1445C205.115 78.1445 205.123 78.1445 205.131 78.1445C205.138 78.1445 205.146 78.1445 205.154 78.1445C205.162 78.1445 205.17 78.1445 205.178 78.1445C205.186 78.1445 205.194 78.1445 205.202 78.1445C205.21 78.1445 205.218 78.1445 205.226 78.1445C205.234 78.1445 205.242 78.1445 205.25 78.1445C205.258 78.1445 205.266 78.1445 205.274 78.1445C205.282 78.1445 205.29 78.1445 205.298 78.1445C205.306 78.1445 205.314 78.1445 205.322 78.1445C205.33 78.1445 205.338 78.1445 205.346 78.1445C205.355 78.1445 205.363 78.1445 205.371 78.1445C205.379 78.1445 205.387 78.1445 205.395 78.1445C205.403 78.1445 205.412 78.1445 205.42 78.1445C205.428 78.1445 205.436 78.1445 205.444 78.1445C205.453 78.1445 205.461 78.1445 205.469 78.1445C205.477 78.1445 205.486 78.1445 205.494 78.1445C205.502 78.1445 205.51 78.1445 205.519 78.1445C205.527 78.1445 205.535 78.1445 205.544 78.1445C205.552 78.1445 205.56 78.1445 205.569 78.1445C205.577 78.1445 205.585 78.1445 205.594 78.1445C205.602 78.1445 205.611 78.1445 205.619 78.1445C205.627 78.1445 205.636 78.1445 205.644 78.1445C205.653 78.1445 205.661 78.1445 205.67 78.1445C205.678 78.1445 205.687 78.1445 205.695 78.1445C205.704 78.1445 205.712 78.1445 205.721 78.1445C205.729 78.1445 205.738 78.1445 205.746 78.1445C205.755 78.1445 205.763 78.1445 205.772 78.1445C205.78 78.1445 205.789 78.1445 205.798 78.1445C205.806 78.1445 205.815 78.1445 205.824 78.1445C205.832 78.1445 205.841 78.1445 205.849 78.1445C205.858 78.1445 205.867 78.1445 205.876 78.1445C205.884 78.1445 205.893 78.1445 205.902 78.1445C205.91 78.1445 205.919 78.1445 205.928 78.1445C205.937 78.1445 205.945 78.1445 205.954 78.1445C205.963 78.1445 205.972 78.1445 205.981 78.1445C205.989 78.1445 205.998 78.1445 206.007 78.1445C206.016 78.1445 206.025 78.1445 206.034 78.1445C206.042 78.1445 206.051 78.1445 206.06 78.1445C206.069 78.1445 206.078 78.1445 206.087 78.1445C206.096 78.1445 206.105 78.1445 206.114 78.1445C206.123 78.1445 206.132 78.1445 206.141 78.1445C206.15 78.1445 206.159 78.1445 206.168 78.1445C206.177 78.1445 206.186 78.1445 206.195 78.1445C206.204 78.1445 206.213 78.1445 206.222 78.1445C206.231 78.1445 206.24 78.1445 206.249 78.1445C206.258 78.1445 206.268 78.1445 206.277 78.1445C206.286 78.1445 206.295 78.1445 206.304 78.1445C206.313 78.1445 206.323 78.1445 206.332 78.1445C206.341 78.1445 206.35 78.1445 206.359 78.1445C206.369 78.1445 206.378 78.1445 206.387 78.1445C206.396 78.1445 206.406 78.1445 206.415 78.1445C206.424 78.1445 206.434 78.1445 206.443 78.1445C206.452 78.1445 206.462 78.1445 206.471 78.1445C206.48 78.1445 206.49 78.1445 206.499 78.1445C206.509 78.1445 206.518 78.1445 206.527 78.1445C206.537 78.1445 206.546 78.1445 206.556 78.1445C206.565 78.1445 206.575 78.1445 206.584 78.1445C206.594 78.1445 206.603 78.1445 206.613 78.1445C206.622 78.1445 206.632 78.1445 206.641 78.1445C206.651 78.1445 206.66 78.1445 206.67 78.1445C206.679 78.1445 206.689 78.1445 206.699 78.1445C206.708 78.1445 206.718 78.1445 206.728 78.1445C206.737 78.1445 206.747 78.1445 206.757 78.1445C206.766 78.1445 206.776 78.1445 206.786 78.1445C206.795 78.1445 206.805 78.1445 206.815 78.1445C206.825 78.1445 206.834 78.1445 206.844 78.1445C206.854 78.1445 206.864 78.1445 206.874 78.1445C206.883 78.1445 206.893 78.1445 206.903 78.1445C206.913 78.1445 206.923 78.1445 206.933 78.1445C206.942 78.1445 206.952 78.1445 206.962 78.1445C206.972 78.1445 206.982 78.1445 206.992 78.1445C207.002 78.1445 207.012 78.1445 207.022 78.1445C207.032 78.1445 207.042 78.1445 207.052 78.1445C207.062 78.1445 207.072 78.1445 207.082 78.1445C207.092 78.1445 207.102 78.1445 207.112 78.1445C207.122 78.1445 207.132 78.1445 207.143 78.1445C207.153 78.1445 207.163 78.1445 207.173 78.1445C207.183 78.1445 207.193 78.1445 207.203 78.1445C207.214 78.1445 207.224 78.1445 207.234 78.1445C207.244 78.1445 207.255 78.1445 207.265 78.1445C207.275 78.1445 207.285 78.1445 207.296 78.1445C207.306 78.1445 207.316 78.1445 207.326 78.1445C207.337 78.1445 207.347 78.1445 207.358 78.1445C207.368 78.1445 207.378 78.1445 207.389 78.1445C207.399 78.1445 207.409 78.1445 207.42 78.1445C207.43 78.1445 207.441 78.1445 207.451 78.1445C207.462 78.1445 207.472 78.1445 207.483 78.1445C207.493 78.1445 207.504 78.1445 207.514 78.1445C207.525 78.1445 207.535 78.1445 207.546 78.1445C207.556 78.1445 207.567 78.1445 207.578 78.1445C207.588 78.1445 207.599 78.1445 207.609 78.1445C207.62 78.1445 207.631 78.1445 207.641 78.1445C207.652 78.1445 207.663 78.1445 207.674 78.1445C207.684 78.1445 207.695 78.1445 207.706 78.1445C207.716 78.1445 207.727 78.1445 207.738 78.1445C207.749 78.1445 207.76 78.1445 207.77 78.1445C207.781 78.1445 207.792 78.1445 207.803 78.1445C207.814 78.1445 207.825 78.1445 207.836 78.1445C207.846 78.1445 207.857 78.1445 207.868 78.1445C207.879 78.1445 207.89 78.1445 207.901 78.1445C207.912 78.1445 207.923 78.1445 207.934 78.1445C207.945 78.1445 207.956 78.1445 207.967 78.1445C207.978 78.1445 207.989 78.1445 208 78.1445C208.011 78.1445 208.023 78.1445 208.034 78.1445C208.045 78.1445 208.056 78.1445 208.067 78.1445C208.078 78.1445 208.089 78.1445 208.101 78.1445C208.112 78.1445 208.123 78.1445 208.134 78.1445C208.146 78.1445 208.157 78.1445 208.168 78.1445C208.179 78.1445 208.191 78.1445 208.202 78.1445C208.213 78.1445 208.225 78.1445 208.236 78.1445C208.247 78.1445 208.259 78.1445 208.27 78.1445C208.281 78.1445 208.293 78.1445 208.304 78.1445C208.316 78.1445 208.327 78.1445 208.338 78.1445C208.35 78.1445 208.361 78.1445 208.373 78.1445C208.384 78.1445 208.396 78.1445 208.407 78.1445C208.419 78.1445 208.431 78.1445 208.442 78.1445C208.454 78.1445 208.465 78.1445 208.477 78.1445C208.489 78.1445 208.5 78.1445 208.512 78.1445C208.523 78.1445 208.535 78.1445 208.547 78.1445V76.1445ZM198.227 76.1445C122.708 76.1445 61.4792 137.058 61.4792 212.211H63.4792C63.4792 138.173 123.803 78.1445 198.227 78.1445V76.1445ZM61.4792 212.211C61.4792 287.361 120.875 346.392 194.782 348.221L194.832 346.221C121.986 344.419 63.4792 286.253 63.4792 212.211H61.4792ZM193.807 347.221V347.334H195.807V347.221H193.807ZM194.807 348.334H257.806V346.334H194.807V348.334ZM258.806 347.334V263.492H256.806V347.334H258.806ZM257.806 262.492H198.114V264.492H257.806V262.492ZM198.139 262.492C171.707 261.825 150.424 240.308 150.424 213.799H148.424C148.424 241.408 170.586 263.797 198.088 264.492L198.139 262.492ZM150.424 213.799C150.424 187.292 172.326 165.106 199.368 165.106V163.106C171.22 163.106 148.424 186.189 148.424 213.799H150.424Z"
    fill="#133205"
    mask="url(#path-2-inside-1_482_3596)"
  />
  <path
    d="M375.192 340.461H303.063V96.1396H375.192V340.461Z"
    stroke="#133205"
  />
  <path
    d="M484.424 272.341V340.458H412.362V2.25757H484.49V189.121V190.457L485.368 189.449L566.48 96.2021H649.705L551.991 206.42L551.713 206.734L551.974 207.063L658.114 340.589H577.206L505.88 250.19L505.521 249.735L505.123 250.157L484.56 271.999L484.424 272.143V272.341Z"
    stroke="#133205"
  />
  <path
    d="M685.675 125.215L685.679 125.211C710.433 101.563 742.241 89.6929 781.145 89.6929C820.031 89.6929 848.661 101.686 872.294 125.661L872.65 125.31L872.294 125.661C895.806 149.51 907.524 178.855 907.524 213.729C907.524 219.476 907.207 227.136 906.63 236.78H720.511H719.983L720.012 237.308C720.812 252.064 727.239 263.844 739.187 272.746L739.485 272.345L739.187 272.746C751.133 281.644 766.85 286.069 786.167 286.069C809.219 286.069 829.325 278.1 846.398 262.243L888.207 301.963C859.207 331.559 824.079 346.383 782.861 346.383C741.444 346.383 710.296 334.839 685.214 311.78C660.464 288.599 648.081 257.884 648.081 219.649V217.808C648.081 179.575 660.6 148.727 685.675 125.215ZM834.635 190.48H835.135V189.98C835.135 178.417 829.816 168.608 819.265 160.57C808.717 152.534 795.983 148.56 781.074 148.56C765.187 148.56 751.531 152.53 739.928 160.556C728.395 168.515 722.078 178.31 721.068 189.936L721.02 190.48H721.566H721.637H834.635Z"
    stroke="#133205"
  />
  <path
    d="M966.546 125.215L966.55 125.211C991.304 101.563 1023.11 89.6929 1062.01 89.6929C1100.9 89.6929 1129.53 101.686 1153.16 125.661C1176.67 149.51 1188.4 178.855 1188.4 213.729C1188.4 219.475 1188.07 227.136 1187.5 236.78H1001.38H1000.85L1000.88 237.308C1001.68 252.064 1008.1 263.844 1020.06 272.746C1032 281.644 1047.72 286.069 1067.04 286.069C1090.08 286.069 1110.19 278.1 1127.27 262.243L1169.07 301.963C1140.08 331.559 1104.95 346.383 1063.73 346.383C1022.31 346.383 991.167 334.839 966.08 311.78C941.335 288.599 928.947 257.884 928.947 219.649V217.808C928.947 179.575 941.465 148.727 966.546 125.215ZM1115.5 190.48H1116V189.98C1116 178.417 1110.68 168.608 1100.14 160.57L1099.83 160.967L1100.14 160.57C1089.59 152.534 1076.85 148.56 1061.94 148.56C1046.05 148.56 1032.4 152.53 1020.8 160.556C1009.27 168.515 1002.94 178.31 1001.94 189.937L1001.89 190.48H1002.44H1002.5H1115.5Z"
    stroke="#133205"
  />
  <path
    d="M1234.95 161.292V160.792H1234.45H1202.67V96.2021H1234.45H1234.95V95.7021V2.25757H1304.89V95.6363V96.1363H1305.39H1359.57V160.727H1305.39H1304.89V161.227V248.921C1304.89 260.55 1307.34 269.001 1312.44 274.204C1317.53 279.407 1325.62 281.986 1336.66 281.986C1341.53 281.986 1347.58 281.358 1354.81 280.168V343.392C1345.08 345.687 1333.28 346.839 1319.47 346.839C1291.19 346.839 1270.08 339.559 1256.04 325.076C1242 310.59 1234.95 288.814 1234.95 259.644V161.292Z"
    stroke="#133205"
  />
  <path
    d="M1459.35 340.461H1387.23V96.1396H1459.35V340.461Z"
    stroke="#133205"
  />
  <path
    d="M1069.39 2.25757L1092.99 71.8475H1049.98L1004.03 2.25757H1069.39Z"
    stroke="#133205"
  />
  <path
    d="M749.763 71.8475L773.36 2.25757H838.723L792.767 71.8475H749.763Z"
    stroke="#133205"
  />
</svg>
