<svg width="302" height="79" viewBox="0 0 302 79" fill="none" xmlns="http://www.w3.org/2000/svg">
<path d="M124.146 30.1788C124.742 30.7665 125.603 30.8885 126.378 30.539C130.652 28.3011 144.178 20.8338 143.369 17.153C142.371 12.8109 138.905 11.4223 137.38 11.4905C136.138 11.5769 127.017 23.6725 123.976 27.7044C123.49 28.4886 123.538 29.5237 124.146 30.1788Z" fill="#9DF316"/>
<path d="M118.713 28.7301C119.383 28.9564 120.035 28.6988 120.423 28.1412C122.571 24.9673 129.287 14.6309 127.334 12.3411C124.957 9.64125 122.012 9.96742 121.016 10.6356C120.142 11.2118 118.33 23.1627 117.718 27.1014C117.57 27.8242 117.975 28.5161 118.713 28.7301Z" fill="#9DF316"/>
<path d="M122.306 40.0462C122.029 40.4445 122.114 40.9161 122.391 41.2834C124.147 43.2609 129.988 49.6462 131.919 48.7387C134.164 47.635 134.486 45.5585 134.204 44.7746C134.014 44.1132 126.203 40.7302 123.566 39.6781C123.179 39.47 122.583 39.6479 122.306 40.0462Z" fill="#9DF316"/>
<path d="M125.654 35.4019C125.604 35.898 125.917 36.4675 126.372 36.6632C129.181 37.8929 138.387 41.6488 139.931 39.7676C141.753 37.4882 141.054 35.1794 140.379 34.5366C139.85 33.9367 130.057 34.2542 126.804 34.4274C126.239 34.3909 125.759 34.826 125.654 35.4019Z" fill="#9DF316"/>
<path d="M84.0781 83.4563L79.2682 86.209C78.3825 86.7178 77.2946 86.4979 76.7297 85.6958C75.6488 84.3611 73.8987 82.0345 72.2472 79.4812C69.9941 75.9238 67.8337 71.7231 67.6399 68.3484C67.6399 68.3484 71.751 63.2869 78.2118 63.8532C78.3593 63.896 78.4946 63.8714 78.6421 63.9142C78.6421 63.9142 78.5867 63.9938 78.5557 64.2082C78.4507 64.784 78.1789 66.3644 78.4107 68.4101C78.7031 71.5582 80.0763 76.041 84.4866 80.3201C85.4264 81.2628 85.2222 82.831 84.0781 83.4563Z" fill="#9DF316"/>
<path d="M78.4107 68.4091C77.4115 72.1398 75.4209 77.7207 72.2594 79.5476C70.0063 75.9902 67.8459 71.7895 67.6521 68.4147C67.6521 68.4147 71.7632 63.3533 78.224 63.9196C78.3837 64.0297 78.4758 64.1522 78.5557 64.2073C78.4507 64.7831 78.2342 66.2838 78.4107 68.4091Z" fill="#133205"/>
<path d="M79.723 65.2495C79.723 65.2495 79.8743 68.0057 80.8688 69.6345C81.1574 70.0692 81.0523 70.645 80.6955 70.9882L79.2004 72.3732C79.2004 72.3732 77.2371 67.7192 78.3026 65.5075L79.723 65.2495Z" fill="#133205"/>
<path d="M54.8199 70.4669L50.2638 71.1553C49.6983 71.1188 49.1636 70.868 48.9305 70.3536L48.5131 69.5943L47.4574 67.6287C47.1321 66.9919 47.268 66.2017 47.8156 65.7543L50.818 63.0516L53.0338 67.1725L54.8199 70.4669Z" fill="#133205"/>
<path d="M104.96 64.559C74.3893 62.0393 64.9388 70.7847 64.9388 70.7847C64.9388 70.7847 64.5697 71.0605 64.01 71.4405C61.9371 72.7217 56.7465 74.9172 52.798 69.7191C52.4295 69.2293 52.0366 68.6048 51.7113 67.9679C48.3233 61.6242 52.1013 57.8063 54.9124 55.9735C56.2226 55.1092 57.3357 54.6982 57.3357 54.6982C73.4422 48.3626 84.6928 26.8334 84.6928 26.8334L95.8759 47.6281L104.96 64.559Z" fill="#9DF316"/>
<path d="M104.96 64.5587C74.3895 62.039 64.939 70.7843 64.939 70.7843C64.939 70.7843 64.5699 71.0602 64.0101 71.4402C61.9372 72.7214 56.7466 74.9169 52.7981 69.7188C61.2597 67.0684 80.7357 60.0511 95.8084 47.6401L104.96 64.5587Z" fill="#133205"/>
<path d="M63.93 71.3861C62.7306 72.0911 60.6764 73.0906 58.3465 72.9571C58.3465 72.9571 58.2789 72.9694 58.2112 72.9816C58.1436 72.9939 58.1436 72.9939 58.0637 72.9388C57.9961 72.9511 57.9284 72.9634 57.8486 72.9083C57.7809 72.9206 57.6334 72.8778 57.5658 72.8901C57.5658 72.8901 57.5658 72.8901 57.4982 72.9024C57.4305 72.9147 57.4305 72.9147 57.3507 72.8596C57.283 72.8719 57.283 72.8719 57.2031 72.8168C57.1355 72.8291 57.0556 72.774 56.988 72.7863C56.9204 72.7986 56.8405 72.7435 56.7729 72.7558C56.7052 72.7681 56.6253 72.713 56.5455 72.6579C56.4656 72.6028 56.398 72.6151 56.3181 72.56C56.2505 72.5723 56.1706 72.5172 56.1706 72.5172C55.7281 72.3888 55.3287 72.1134 54.9416 71.9053L54.8617 71.8503C54.7818 71.7952 54.7019 71.7401 54.6221 71.685C54.4623 71.5748 54.3026 71.4647 54.2105 71.3422C54.1306 71.2871 54.1184 71.2198 54.0507 71.2321C53.9709 71.177 53.9586 71.1096 53.8787 71.0545C53.7068 70.877 53.5348 70.6994 53.3628 70.5219C53.2829 70.4668 53.2707 70.3995 53.1908 70.3444C53.1109 70.2893 53.0987 70.2219 53.0188 70.1668C52.939 70.1118 52.9267 70.0444 52.8469 69.9893C52.767 69.9342 52.7547 69.8669 52.6626 69.7444C52.2942 69.2546 51.9013 68.63 51.576 67.9932C48.188 61.6495 51.966 57.8316 54.7771 55.9987C55.3342 58.6812 56.6707 62.9619 59.9622 67.2354C61.1107 68.5578 62.4189 69.9904 63.93 71.3861Z" fill="#133205"/>
<path d="M59.8361 56.5416C59.7188 57.05 59.2145 57.3504 58.7043 57.2343C58.1941 57.1182 57.8933 56.6161 58.0106 56.1077C58.1278 55.5992 58.6322 55.2988 59.1424 55.4149C59.6525 55.531 59.9533 56.0331 59.8361 56.5416Z" fill="#133205"/>
<path d="M62.4072 55.3111C62.29 55.8195 61.7856 56.1199 61.2755 56.0038C60.7653 55.8877 60.4645 55.3856 60.5817 54.8772C60.699 54.3687 61.2034 54.0684 61.7135 54.1845C62.2237 54.3006 62.5245 54.8027 62.4072 55.3111Z" fill="#133205"/>
<path d="M64.6029 53.9361C64.4857 54.4445 63.9813 54.7449 63.4711 54.6288C62.961 54.5127 62.6602 54.0106 62.7774 53.5022C62.8947 52.9937 63.3991 52.6934 63.9092 52.8095C64.4194 52.9256 64.7202 53.4277 64.6029 53.9361Z" fill="#133205"/>
<path d="M113.927 64.7381C120.93 61.0957 121.193 47.7897 114.515 35.0183C107.836 22.2469 96.7443 14.8464 89.741 18.4888C82.7378 22.1312 82.4748 35.4372 89.1536 48.2086C95.8324 60.98 106.924 68.3805 113.927 64.7381Z" fill="#133205"/>
<path d="M113.606 62.1544C108.747 63.872 102.062 60.1453 96.5965 53.135C95.3315 51.5555 94.165 49.7492 93.0539 47.8633C92.9617 47.7408 92.8574 47.551 92.8329 47.4162C92.6365 47.104 92.5199 46.8468 92.3234 46.5345C92.2191 46.3447 92.1147 46.1549 92.0104 45.965C90.9302 43.8647 90.0652 41.7949 89.4031 39.6883C86.638 31.0044 87.3886 23.213 91.584 20.1544C96.9833 18.3386 105.67 25.39 111.464 36.5162C117.325 47.63 118.17 58.82 113.606 62.1544Z" fill="#2A680C"/>
<path d="M105.886 45.8126L96.5289 53.1492C95.6201 51.992 94.7666 50.7552 93.9685 49.4387C93.6677 48.9366 93.3547 48.3672 93.0539 47.8651C92.9618 47.7426 92.8574 47.5528 92.833 47.4181C92.6365 47.1058 92.5199 46.8486 92.3235 46.5363C92.2191 46.3465 92.1148 46.1567 92.0104 45.9669C90.9303 43.8665 90.0652 41.7967 89.4031 39.6901L101.136 35.819L103.72 41.1955L105.886 45.8126Z" fill="white"/>
<path d="M105.886 45.813L96.5289 53.1496C95.62 51.9924 94.7665 50.7556 93.9685 49.4391C93.9685 49.4391 99.9109 45.2281 103.72 41.1959L105.886 45.813Z" fill="#D8D8D8"/>
<path d="M106.077 45.7089C104.865 46.3466 102.997 45.2941 101.591 43.3225C101.314 42.9552 101.106 42.5755 100.897 42.1959C99.4916 39.4587 99.4756 36.678 100.946 35.9238C102.225 35.2739 104.265 36.504 105.732 38.8123C105.836 39.0022 106.021 39.2471 106.137 39.5043C107.53 42.174 107.547 44.9548 106.077 45.7089Z" fill="#9DF316"/>
<path d="M106.077 45.7079C104.865 46.3456 102.997 45.293 101.591 43.3215C103.209 41.8445 104.735 40.2451 105.664 38.8236C105.769 39.0134 105.953 39.2583 106.07 39.5155C107.53 42.173 107.546 44.9538 106.077 45.7079Z" fill="#133205"/>
<path d="M20.0976 55.8943L1.84114 50.984C0.811847 50.7142 0.270115 49.689 0.540982 48.6637L5.47076 30.4793C5.74163 29.4541 6.77093 28.9145 7.80023 29.1843L26.0567 34.0946C27.086 34.3644 27.6277 35.3896 27.3568 36.4149L22.4271 54.5993C22.1562 55.5706 21.1269 56.1641 20.0976 55.8943Z" fill="#9DF316"/>
<path d="M19.7184 38.2486C19.2309 37.763 18.5808 37.3852 17.8765 37.3852C17.0098 37.3852 15.9263 37.763 15.1137 38.0328C14.572 37.3852 13.8135 36.5219 13.0551 36.0902C12.4592 35.7665 11.7008 35.7125 11.0507 35.9283C9.47965 36.36 8.45036 37.8709 8.28784 39.3818C8.12532 40.8926 8.66705 42.4575 9.42548 43.8604C10.1839 45.2634 11.5924 46.9901 12.2967 48.393C13.5968 47.4757 15.7096 46.7203 17.0639 45.9109C18.4183 45.0475 19.6643 44.0223 20.3144 42.6193C20.9644 41.2164 20.8561 39.4357 19.7184 38.2486Z" fill="white"/>
<path d="M300.049 79.0204L287.481 82.1501C286.776 82.312 286.072 81.9342 285.91 81.2328L282.768 68.7141C282.605 68.0126 282.984 67.3112 283.689 67.1493L296.257 64.0196C296.961 63.8577 297.665 64.2354 297.828 64.9369L300.97 77.4556C301.132 78.1571 300.699 78.8585 300.049 79.0204Z" fill="#9DF316"/>
<path d="M293.873 68.606C293.44 68.4981 292.898 68.4981 292.519 68.714C291.977 68.9838 291.49 69.5773 291.11 70.009C290.569 69.7932 289.81 69.5234 289.214 69.5234C288.727 69.5234 288.293 69.7392 287.968 70.063C287.156 70.8724 287.047 72.0595 287.481 73.0307C287.914 74.002 288.727 74.7575 289.648 75.351C290.569 75.9446 291.977 76.4842 292.898 77.1317C293.386 76.1604 294.361 75.0272 294.902 74.056C295.444 73.0847 295.823 72.0595 295.715 70.9803C295.607 69.955 294.957 68.9298 293.873 68.606Z" fill="white"/>
<path d="M55.9262 28.0773C53.8676 28.0773 52.2424 26.4046 52.2424 24.3541C52.2424 22.3036 53.9218 20.6309 55.9262 20.6309C57.9848 20.6309 59.61 22.3036 59.61 24.3541C59.61 26.4046 57.9848 28.0773 55.9262 28.0773ZM55.9262 21.6021C54.4094 21.6021 53.1634 22.8432 53.1634 24.3541C53.1634 25.865 54.4094 27.106 55.9262 27.106C57.4431 27.106 58.6891 25.865 58.6891 24.3541C58.6891 22.8432 57.4431 21.6021 55.9262 21.6021Z" fill="#133205"/>
<path d="M46.9877 13.0228C45.9584 13.0228 45.1458 12.2134 45.1458 11.1881C45.1458 10.1629 45.9584 9.35352 46.9877 9.35352C48.0169 9.35352 48.8295 10.1629 48.8295 11.1881C48.8295 12.2134 48.0169 13.0228 46.9877 13.0228ZM46.9877 9.7852C46.2292 9.7852 45.6333 10.3787 45.6333 11.1881C45.6333 11.9436 46.2292 12.5911 46.9877 12.5911C47.7461 12.5911 48.342 11.9975 48.342 11.1881C48.342 10.4327 47.7461 9.7852 46.9877 9.7852Z" fill="#133205"/>
<path d="M42.762 36.0626C42.5995 35.9007 42.5995 35.577 42.762 35.3611L45.4165 32.7171C45.579 32.5552 45.9041 32.5552 46.0666 32.7171C46.2291 32.879 46.2291 33.2027 46.0666 33.4186L43.4121 36.0626C43.2496 36.2784 42.9787 36.2784 42.762 36.0626Z" fill="#133205"/>
<path d="M38.4824 40.379C38.3198 40.2171 38.3198 39.8934 38.4824 39.6775L41.1369 37.0335C41.2994 36.8716 41.6244 36.8716 41.7869 37.0335C41.9495 37.1954 41.9495 37.5191 41.7869 37.735L39.1324 40.379C38.9699 40.5409 38.6991 40.5409 38.4824 40.379Z" fill="#133205"/>
<path d="M45.4165 40.379L42.762 37.735C42.5995 37.5731 42.5995 37.2494 42.762 37.0335C42.9245 36.8716 43.2496 36.8716 43.4121 37.0335L46.0666 39.6775C46.2291 39.8394 46.2291 40.1632 46.0666 40.379C45.9041 40.5409 45.579 40.5409 45.4165 40.379Z" fill="#133205"/>
<path d="M41.1369 36.0626L38.4824 33.4186C38.3198 33.2567 38.3198 32.933 38.4824 32.7171C38.6449 32.5552 38.9699 32.5552 39.1324 32.7171L41.7869 35.3611C41.9495 35.523 41.9495 35.8468 41.7869 36.0626C41.6244 36.2784 41.2994 36.2784 41.1369 36.0626Z" fill="#133205"/>
<path d="M283.589 12.1034L278.443 8.32617L278.064 9.35141C264.195 5.08859 243.393 15.6647 228.387 35.7377C213.435 55.7028 209.209 78.4738 217.173 90.5608L215.656 90.8306L221.507 95.1474C234.833 105.022 259.536 94.4459 276.655 71.513C293.828 48.6341 296.916 21.978 283.589 12.1034Z" fill="#D0D5DD"/>
<path d="M270.984 67.2887C288.114 44.3624 291.182 17.7579 277.837 7.86598C264.493 -2.02597 239.789 8.54046 222.659 31.4668C205.53 54.3931 202.462 80.9975 215.806 90.8895C229.151 100.781 253.855 90.215 270.984 67.2887Z" fill="white"/>
<path d="M267.765 64.9226C283.608 43.7176 286.937 19.4748 275.201 10.7749C263.464 2.07493 241.106 12.2123 225.263 33.4174C209.419 54.6224 206.09 78.8652 217.827 87.5651C229.563 96.2651 251.921 86.1277 267.765 64.9226Z" fill="#9DF316"/>
<path d="M261.848 60.5694C274.548 43.5719 277.605 24.4275 268.676 17.8091C259.748 11.1907 242.215 19.6047 229.515 36.6022C216.815 53.5997 213.758 72.7441 222.687 79.3625C231.615 85.9808 249.148 77.5669 261.848 60.5694Z" fill="white"/>
<path d="M258.783 58.3056C268.75 44.9657 271.129 29.9258 264.097 24.713C257.065 19.5001 243.284 26.0884 233.317 39.4282C223.35 52.768 220.971 67.8079 228.004 73.0207C235.036 78.2336 248.817 71.6454 258.783 58.3056Z" fill="#9DF316"/>
<path d="M254.049 54.7747C261.604 44.6623 263.896 33.6232 259.168 30.1184C254.44 26.6135 244.482 31.97 236.926 42.0824C229.371 52.1948 227.079 63.2339 231.807 66.7387C236.535 70.2436 246.493 64.8871 254.049 54.7747Z" fill="white"/>
<path d="M249.182 51.1682C252.45 46.7933 253.446 42.0209 251.406 40.5086C249.366 38.9963 245.062 41.317 241.794 45.6919C238.525 50.0667 237.529 54.8392 239.569 56.3515C241.609 57.8637 245.913 55.5431 249.182 51.1682Z" fill="#9DF316"/>
<path d="M209.155 20.6824L208.017 15.0706C207.909 14.531 207.584 14.0454 207.096 13.7216L198.483 7.7321C197.779 7.24646 196.858 7.94794 197.129 8.75733L198.862 13.5597L209.155 20.6824Z" fill="#2A680C"/>
<path d="M207.096 23.704L201.408 24.5673C200.866 24.6753 200.271 24.5134 199.837 24.1896L191.169 18.2001C190.465 17.7145 190.79 16.6353 191.657 16.5813L196.803 16.5273L207.096 23.704Z" fill="#2A680C"/>
<path d="M241.063 45.5032L197.67 17.9838C196.533 17.2283 196.208 15.7174 196.966 14.5843C197.724 13.4511 199.296 13.2353 200.379 14.0447L241.388 45.0176L241.063 45.5032Z" fill="#2A680C"/>
<path d="M245.722 48.4174L242.201 45.4496C242.255 45.0719 242.147 44.6942 241.822 44.4783L236.784 41.0249C236.35 40.7012 235.7 40.8091 235.375 41.2947C235.05 41.7264 235.158 42.3739 235.646 42.6977L240.684 46.1511C241.009 46.3669 241.388 46.3669 241.659 46.205L245.722 48.4174Z" fill="#2A680C"/>
</svg>
