<svg width="20" height="20" viewBox="0 0 20 20" fill="none" xmlns="http://www.w3.org/2000/svg">
    <g clip-path="url(#clip0_1048_30066)">
    <path d="M10 20C15.5228 20 20 15.5228 20 10C20 4.47715 15.5228 0 10 0C4.47715 0 0 4.47715 0 10C0 15.5228 4.47715 20 10 20Z" fill="#F0F0F0"/>
    <path d="M2.06718 3.91174C1.28167 4.93374 0.689365 6.11166 0.344482 7.39131H5.54675L2.06718 3.91174Z" fill="#0052B4"/>
    <path d="M19.6554 7.39127C19.3106 6.11166 18.7182 4.93374 17.9327 3.91174L14.4532 7.39127H19.6554Z" fill="#0052B4"/>
    <path d="M0.344482 12.6088C0.689404 13.8884 1.28171 15.0663 2.06718 16.0883L5.54663 12.6088H0.344482Z" fill="#0052B4"/>
    <path d="M16.0882 2.06722C15.0662 1.28171 13.8883 0.689404 12.6086 0.344482V5.54671L16.0882 2.06722Z" fill="#0052B4"/>
    <path d="M3.91174 17.9327C4.93374 18.7182 6.11167 19.3105 7.39127 19.6554V14.4532L3.91174 17.9327Z" fill="#0052B4"/>
    <path d="M7.39124 0.344482C6.11163 0.689404 4.9337 1.28171 3.91174 2.06718L7.39124 5.54667V0.344482Z" fill="#0052B4"/>
    <path d="M12.6086 19.6554C13.8883 19.3105 15.0662 18.7182 16.0881 17.9327L12.6086 14.4532V19.6554Z" fill="#0052B4"/>
    <path d="M14.4532 12.6088L17.9327 16.0883C18.7182 15.0663 19.3106 13.8884 19.6554 12.6088H14.4532Z" fill="#0052B4"/>
    <path d="M19.9154 8.69566H11.3044H11.3044V0.0846484C10.8774 0.0290625 10.4421 0 10 0C9.55785 0 9.12262 0.0290625 8.69566 0.0846484V8.69559V8.69563H0.0846484C0.0290625 9.12262 0 9.55793 0 10C0 10.4421 0.0290625 10.8774 0.0846484 11.3043H8.69559H8.69563V19.9154C9.12262 19.9709 9.55785 20 10 20C10.4421 20 10.8774 19.971 11.3043 19.9154V11.3044V11.3044H19.9154C19.9709 10.8774 20 10.4421 20 10C20 9.55793 19.9709 9.12262 19.9154 8.69566V8.69566Z" fill="#D80027"/>
    <path d="M12.6088 12.6088L17.0711 17.0711C17.2763 16.866 17.4721 16.6515 17.6589 16.4292L13.8385 12.6088H12.6088V12.6088Z" fill="#D80027"/>
    <path d="M7.39122 12.6088H7.39114L2.92883 17.0711C3.13399 17.2763 3.34848 17.4721 3.57083 17.6589L7.39122 13.8384V12.6088Z" fill="#D80027"/>
    <path d="M7.39122 7.39129V7.39122L2.92888 2.92883C2.72364 3.13399 2.52786 3.34848 2.34106 3.57083L6.16149 7.39125H7.39122V7.39129Z" fill="#D80027"/>
    <path d="M12.6088 7.39138L17.0711 2.92896C16.866 2.72373 16.6515 2.52794 16.4292 2.34119L12.6088 6.16162V7.39138Z" fill="#D80027"/>
    </g>
    <defs>
    <clipPath id="clip0_1048_30066">
    <rect width="20" height="20" fill="white"/>
    </clipPath>
    </defs>
    </svg>
    