<svg width="14" height="14" viewBox="0 0 14 14" fill="none" xmlns="http://www.w3.org/2000/svg">
    <path d="M6.99998 13.6667C6.08887 13.6667 5.22776 13.4917 4.41665 13.1417C3.60554 12.7917 2.8972 12.3139 2.29165 11.7083C1.68609 11.1028 1.20831 10.3945 0.858313 9.58334C0.508313 8.77223 0.333313 7.91112 0.333313 7.00001C0.333313 6.07779 0.508313 5.2139 0.858313 4.40834C1.20831 3.60279 1.68609 2.89723 2.29165 2.29168C2.8972 1.68612 3.60554 1.20834 4.41665 0.858344C5.22776 0.508344 6.08887 0.333344 6.99998 0.333344C7.9222 0.333344 8.78609 0.508344 9.59165 0.858344C10.3972 1.20834 11.1028 1.68612 11.7083 2.29168C12.3139 2.89723 12.7916 3.60279 13.1416 4.40834C13.4916 5.2139 13.6666 6.07779 13.6666 7.00001C13.6666 7.91112 13.4916 8.77223 13.1416 9.58334C12.7916 10.3945 12.3139 11.1028 11.7083 11.7083C11.1028 12.3139 10.3972 12.7917 9.59165 13.1417C8.78609 13.4917 7.9222 13.6667 6.99998 13.6667ZM6.99998 12.3C7.28887 11.9 7.53887 11.4833 7.74998 11.05C7.96109 10.6167 8.13331 10.1556 8.26665 9.66668H5.73331C5.86665 10.1556 6.03887 10.6167 6.24998 11.05C6.46109 11.4833 6.71109 11.9 6.99998 12.3ZM5.26665 12.0333C5.06665 11.6667 4.89165 11.2861 4.74165 10.8917C4.59165 10.4972 4.46665 10.0889 4.36665 9.66668H2.39998C2.7222 10.2222 3.12498 10.7056 3.60831 11.1167C4.09165 11.5278 4.64442 11.8333 5.26665 12.0333ZM8.73331 12.0333C9.35554 11.8333 9.90831 11.5278 10.3916 11.1167C10.875 10.7056 11.2778 10.2222 11.6 9.66668H9.63331C9.53331 10.0889 9.40831 10.4972 9.25831 10.8917C9.10831 11.2861 8.93331 11.6667 8.73331 12.0333ZM1.83331 8.33334H4.09998C4.06665 8.11112 4.04165 7.89168 4.02498 7.67501C4.00831 7.45834 3.99998 7.23334 3.99998 7.00001C3.99998 6.76668 4.00831 6.54168 4.02498 6.32501C4.04165 6.10834 4.06665 5.8889 4.09998 5.66668H1.83331C1.77776 5.8889 1.73609 6.10834 1.70831 6.32501C1.68054 6.54168 1.66665 6.76668 1.66665 7.00001C1.66665 7.23334 1.68054 7.45834 1.70831 7.67501C1.73609 7.89168 1.77776 8.11112 1.83331 8.33334ZM5.43331 8.33334H8.56665C8.59998 8.11112 8.62498 7.89168 8.64165 7.67501C8.65831 7.45834 8.66665 7.23334 8.66665 7.00001C8.66665 6.76668 8.65831 6.54168 8.64165 6.32501C8.62498 6.10834 8.59998 5.8889 8.56665 5.66668H5.43331C5.39998 5.8889 5.37498 6.10834 5.35831 6.32501C5.34165 6.54168 5.33331 6.76668 5.33331 7.00001C5.33331 7.23334 5.34165 7.45834 5.35831 7.67501C5.37498 7.89168 5.39998 8.11112 5.43331 8.33334ZM9.89998 8.33334H12.1666C12.2222 8.11112 12.2639 7.89168 12.2916 7.67501C12.3194 7.45834 12.3333 7.23334 12.3333 7.00001C12.3333 6.76668 12.3194 6.54168 12.2916 6.32501C12.2639 6.10834 12.2222 5.8889 12.1666 5.66668H9.89998C9.93331 5.8889 9.95831 6.10834 9.97498 6.32501C9.99165 6.54168 9.99998 6.76668 9.99998 7.00001C9.99998 7.23334 9.99165 7.45834 9.97498 7.67501C9.95831 7.89168 9.93331 8.11112 9.89998 8.33334ZM9.63331 4.33334H11.6C11.2778 3.77779 10.875 3.29445 10.3916 2.88334C9.90831 2.47223 9.35554 2.16668 8.73331 1.96668C8.93331 2.33334 9.10831 2.7139 9.25831 3.10834C9.40831 3.50279 9.53331 3.91112 9.63331 4.33334ZM5.73331 4.33334H8.26665C8.13331 3.84445 7.96109 3.38334 7.74998 2.95001C7.53887 2.51668 7.28887 2.10001 6.99998 1.70001C6.71109 2.10001 6.46109 2.51668 6.24998 2.95001C6.03887 3.38334 5.86665 3.84445 5.73331 4.33334ZM2.39998 4.33334H4.36665C4.46665 3.91112 4.59165 3.50279 4.74165 3.10834C4.89165 2.7139 5.06665 2.33334 5.26665 1.96668C4.64442 2.16668 4.09165 2.47223 3.60831 2.88334C3.12498 3.29445 2.7222 3.77779 2.39998 4.33334Z" fill="#13191C"/>
</svg>
    