<svg width="128" height="24" viewBox="0 0 128 24" fill="none" xmlns="http://www.w3.org/2000/svg">
    <path d="M7.85436 0.0138855V0.797452C7.85436 0.946331 7.85436 1.08346 7.85436 1.20883C7.85436 1.43214 7.85436 1.86702 7.85436 1.86702C7.85436 1.86702 7.85436 2.18829 7.85436 2.26272C7.85436 2.32541 7.86205 2.62317 7.83512 2.75637C7.71208 3.40674 7.45446 4.01401 7.06994 4.55467C6.81233 4.91903 6.50088 5.24028 6.15097 5.51063C5.62034 5.92198 5.0551 6.18841 4.42836 6.32161C4.2438 6.34119 3.94773 6.35688 3.72086 6.35688H0.27179V12.218H3.47478C3.86312 12.218 4.25533 12.1905 4.63983 12.1474C5.40885 12.0573 6.1625 11.8771 6.88153 11.6146C7.66977 11.3286 8.42342 10.9408 9.11939 10.4628C9.40394 10.2669 9.68076 10.0553 9.93841 9.8359C10.4575 9.39711 10.9343 8.90347 11.3573 8.37064C11.5649 8.10816 11.761 7.83389 11.9417 7.55571C12.3993 6.84661 12.7723 6.0787 13.0452 5.27164C13.2952 4.53506 13.4644 3.76719 13.5451 2.98752C13.5836 2.62709 13.6028 2.25881 13.6028 1.89445V0.0138855H7.85821H7.85436Z" fill="white"/>
    <path d="M18.8205 11.2385V5.25206L15.4983 5.2207C15.0945 5.2207 15.0369 5.2207 14.8023 5.2207C9.74598 5.2207 5.64709 9.39711 5.64709 14.5491C5.64709 19.701 9.62294 23.7482 14.5716 23.8735V23.8814H18.8205V18.0908H14.7946C12.9759 18.0438 11.5109 16.5276 11.5109 14.6588C11.5109 12.79 13.0182 11.2268 14.8792 11.2268" fill="white"/>
    <path d="M26.771 23.4415H21.839V6.49835H26.771V23.4415Z" fill="white"/>
    <path d="M34.1419 23.4414H29.21V0.0144958H34.1419V12.9547L39.6223 6.50277H45.3259L38.6861 14.1724L45.8878 23.4505H40.3448L35.5245 17.1939L34.1376 18.7024V23.4459L34.1419 23.4414Z" fill="white"/>
    <path d="M45.1077 15.0676V14.9358C45.1077 12.2869 45.9551 10.1468 47.6541 8.51566C49.3308 6.87542 51.4845 6.05304 54.1155 6.05304C56.7464 6.05304 58.6863 6.88451 60.287 8.54749C61.8791 10.2013 62.6729 12.2369 62.6729 14.6541C62.6729 15.0585 62.6505 15.5992 62.6103 16.2807H50.0263C50.0799 17.2894 50.5079 18.0936 51.306 18.7025C52.1043 19.3113 53.1568 19.6157 54.4542 19.6157C56.0107 19.6157 57.3663 19.0614 58.5167 17.9573L61.3842 20.7471C59.4174 22.8145 57.0319 23.8504 54.2314 23.8504C51.4309 23.8504 49.3218 23.0507 47.6228 21.4513C45.9461 19.8429 45.1077 17.712 45.1077 15.063V15.0676ZM50.1022 13.0139H57.723C57.723 12.2278 57.3706 11.5599 56.6662 11.0101C55.9617 10.4604 55.11 10.1877 54.1111 10.1877C53.0453 10.1877 52.131 10.4604 51.3552 11.0101C50.5838 11.5554 50.1645 12.2233 50.0976 13.0139H50.1022Z" fill="white"/>
    <path d="M64.0502 15.0676V14.9358C64.0502 12.2869 64.8976 10.1468 66.5966 8.51566C68.2733 6.87542 70.427 6.05304 73.058 6.05304C75.6889 6.05304 77.6288 6.88451 79.2296 8.54749C80.8216 10.2013 81.6154 12.2369 81.6154 14.6541C81.6154 15.0585 81.5931 15.5992 81.5528 16.2807H68.9688C69.0224 17.2894 69.4504 18.0936 70.2488 18.7025C71.0468 19.3113 72.0994 19.6157 73.397 19.6157C74.9532 19.6157 76.3088 19.0614 77.4592 17.9573L80.3267 20.7471C78.3602 22.8145 75.9744 23.8504 73.1739 23.8504C70.3734 23.8504 68.2643 23.0507 66.5653 21.4513C64.8886 19.8429 64.0502 17.712 64.0502 15.063V15.0676ZM69.0447 13.0139H76.6655C76.6655 12.2278 76.3131 11.5599 75.6087 11.0101C74.9042 10.4604 74.0525 10.1877 73.0536 10.1877C71.9878 10.1877 71.0735 10.4604 70.2978 11.0101C69.5263 11.5554 69.107 12.2233 69.0401 13.0139H69.0447Z" fill="white"/>
    <path d="M84.6877 17.83V11.0328H82.5117V6.50277H84.6877V0.0144958H89.4723V6.49825H93.1601V11.0282H89.4723V17.0849C89.4723 17.8846 89.6375 18.457 89.9719 18.8069C90.3063 19.1568 90.8416 19.334 91.5817 19.334C91.9161 19.334 92.3354 19.2885 92.8391 19.2022V23.6368C92.1749 23.8003 91.3675 23.8821 90.4222 23.8821C86.5962 23.8821 84.6877 21.8648 84.6877 17.8255V17.83Z" fill="white"/>
    <path d="M99.4597 23.2589H94.5278V6.3158H99.4597V23.2589Z" fill="white"/>
    <path d="M101.966 17.3684L101.966 12.3158L105.995 12.3158L105.995 17.3684L101.966 17.3684Z" fill="#9DF316"/>
    <path d="M123.41 19.1837L119.923 22.737L108.165 10.7564L111.652 7.20305L123.41 19.1837Z" fill="#9DF316"/>
    <path d="M108.165 19.1836L111.652 22.737L123.41 10.7564L119.923 7.20303L108.165 19.1836Z" fill="#9DF316"/>
    <path d="M75.1939 4.88981H72.2286L69.0847 0.0144958H73.5795L75.1939 4.88981Z" fill="white"/>
    <path d="M53.5663 0.0144958H58.0614L54.9175 4.88981H51.9521L53.5663 0.0144958Z" fill="white"/>
</svg>
    