<svg width="129" height="24" viewBox="0 0 129 24" fill="none" xmlns="http://www.w3.org/2000/svg">
<path d="M8.01965 0.0138855V0.797452C8.01965 0.946331 8.01965 1.08346 8.01965 1.20883C8.01965 1.43214 8.01965 1.86702 8.01965 1.86702C8.01965 1.86702 8.01965 2.18829 8.01965 2.26272C8.01965 2.32541 8.02733 2.62317 8.0004 2.75637C7.87736 3.40674 7.61975 4.01401 7.23522 4.55467C6.97761 4.91903 6.66616 5.24028 6.31625 5.51063C5.78563 5.92198 5.22038 6.18841 4.59365 6.32161C4.40909 6.34119 4.11301 6.35688 3.88615 6.35688H0.437073V12.218H3.64006C4.0284 12.218 4.42061 12.1905 4.80511 12.1474C5.57413 12.0573 6.32778 11.8771 7.04682 11.6146C7.83505 11.3286 8.5887 10.9408 9.28468 10.4628C9.56922 10.2669 9.84605 10.0553 10.1037 9.8359C10.6228 9.39711 11.0996 8.90347 11.5225 8.37064C11.7302 8.10816 11.9263 7.83389 12.107 7.55571C12.5645 6.84661 12.9375 6.0787 13.2105 5.27164C13.4605 4.53506 13.6296 3.76719 13.7104 2.98752C13.7488 2.62709 13.7681 2.25881 13.7681 1.89445V0.0138855H8.02349H8.01965Z" fill="#133205"/>
<path d="M18.9857 11.2385V5.25206L15.6635 5.2207C15.2598 5.2207 15.2022 5.2207 14.9676 5.2207C9.91126 5.2207 5.81238 9.39711 5.81238 14.5491C5.81238 19.701 9.78822 23.7482 14.7369 23.8735V23.8814H18.9857V18.0908H14.9599C13.1412 18.0438 11.6762 16.5276 11.6762 14.6588C11.6762 12.79 13.1835 11.2268 15.0445 11.2268" fill="#133205"/>
<path d="M26.9362 23.4415H22.0043V6.49835H26.9362V23.4415Z" fill="#133205"/>
<path d="M34.3072 23.4414H29.3753V0.0144958H34.3072V12.9547L39.7876 6.50277H45.4912L38.8513 14.1724L46.0531 23.4505H40.5101L35.6898 17.1939L34.3028 18.7024V23.4459L34.3072 23.4414Z" fill="#133205"/>
<path d="M45.273 15.0676V14.9358C45.273 12.2869 46.1204 10.1468 47.8194 8.51566C49.4961 6.87542 51.6498 6.05304 54.2807 6.05304C56.9117 6.05304 58.8515 6.88451 60.4523 8.54749C62.0444 10.2013 62.8381 12.2369 62.8381 14.6541C62.8381 15.0585 62.8158 15.5992 62.7755 16.2807H50.1916C50.2452 17.2894 50.6732 18.0936 51.4712 18.7025C52.2696 19.3113 53.3221 19.6157 54.6195 19.6157C56.1759 19.6157 57.5316 19.0614 58.682 17.9573L61.5495 20.7471C59.5827 22.8145 57.1972 23.8504 54.3967 23.8504C51.5961 23.8504 49.4871 23.0507 47.7881 21.4513C46.1114 19.8429 45.273 17.712 45.273 15.063V15.0676ZM50.2675 13.0139H57.8883C57.8883 12.2278 57.5359 11.5599 56.8314 11.0101C56.127 10.4604 55.2753 10.1877 54.2764 10.1877C53.2106 10.1877 52.2963 10.4604 51.5205 11.0101C50.7491 11.5554 50.3298 12.2233 50.2628 13.0139H50.2675Z" fill="#133205"/>
<path d="M64.2155 15.0676V14.9358C64.2155 12.2869 65.0629 10.1468 66.7619 8.51566C68.4386 6.87542 70.5923 6.05304 73.2232 6.05304C75.8542 6.05304 77.7941 6.88451 79.3948 8.54749C80.9869 10.2013 81.7807 12.2369 81.7807 14.6541C81.7807 15.0585 81.7583 15.5992 81.7181 16.2807H69.1341C69.1877 17.2894 69.6157 18.0936 70.4141 18.7025C71.2121 19.3113 72.2646 19.6157 73.5623 19.6157C75.1185 19.6157 76.4741 19.0614 77.6245 17.9573L80.492 20.7471C78.5255 22.8145 76.1397 23.8504 73.3392 23.8504C70.5387 23.8504 68.4296 23.0507 66.7306 21.4513C65.0539 19.8429 64.2155 17.712 64.2155 15.063V15.0676ZM69.21 13.0139H76.8308C76.8308 12.2278 76.4784 11.5599 75.7739 11.0101C75.0695 10.4604 74.2178 10.1877 73.2189 10.1877C72.1531 10.1877 71.2388 10.4604 70.463 11.0101C69.6916 11.5554 69.2723 12.2233 69.2053 13.0139H69.21Z" fill="#133205"/>
<path d="M84.8529 17.83V11.0328H82.6769V6.50277H84.8529V0.0144958H89.6376V6.49825H93.3254V11.0282H89.6376V17.0849C89.6376 17.8846 89.8028 18.457 90.1372 18.8069C90.4716 19.1568 91.0069 19.334 91.747 19.334C92.0814 19.334 92.5007 19.2885 93.0043 19.2022V23.6368C92.3402 23.8003 91.5328 23.8821 90.5875 23.8821C86.7615 23.8821 84.8529 21.8648 84.8529 17.8255V17.83Z" fill="#133205"/>
<path d="M99.625 23.2589H94.6931V6.3158H99.625V23.2589Z" fill="#133205"/>
<path d="M102.131 17.3684L102.131 12.3158L106.16 12.3158L106.16 17.3684L102.131 17.3684Z" fill="#9DF316"/>
<path d="M123.576 19.1837L120.088 22.737L108.33 10.7564L111.817 7.20305L123.576 19.1837Z" fill="#9DF316"/>
<path d="M108.33 19.1836L111.817 22.737L123.576 10.7564L120.088 7.20303L108.33 19.1836Z" fill="#9DF316"/>
<path d="M75.3592 4.88981H72.3938L69.2499 0.0144958H73.7448L75.3592 4.88981Z" fill="#133205"/>
<path d="M53.7315 0.0144958H58.2267L55.0828 4.88981H52.1174L53.7315 0.0144958Z" fill="#133205"/>
</svg>
