<svg width="105" height="20" viewBox="0 0 105 20" fill="none" xmlns="http://www.w3.org/2000/svg">
    <path d="M6.3992 0.0115662V0.664538C6.3992 0.788604 6.3992 0.902875 6.3992 1.00735C6.3992 1.19345 6.3992 1.55585 6.3992 1.55585C6.3992 1.55585 6.3992 1.82357 6.3992 1.8856C6.3992 1.93784 6.40546 2.18597 6.38352 2.29697C6.28328 2.83895 6.07339 3.345 5.7601 3.79555C5.55022 4.09919 5.29647 4.3669 5.01139 4.59219C4.57908 4.93498 4.11855 5.157 3.60793 5.268C3.45756 5.28432 3.21634 5.2974 3.03151 5.2974H0.221436V10.1816H2.83101C3.14741 10.1816 3.46696 10.1588 3.78022 10.1229C4.40676 10.0478 5.02079 9.89758 5.6066 9.67884C6.24881 9.4405 6.86283 9.11729 7.42986 8.71898C7.66169 8.55571 7.88723 8.37942 8.09714 8.19658C8.52006 7.83092 8.90852 7.41955 9.25312 6.97553C9.42228 6.75679 9.58206 6.52824 9.7293 6.29642C10.1021 5.7055 10.406 5.06558 10.6284 4.39303C10.832 3.77921 10.9698 3.13932 11.0356 2.4896C11.067 2.18923 11.0826 1.88234 11.0826 1.5787V0.0115662H6.40233H6.3992Z" fill="#133205"/>
    <path d="M15.3337 9.36543V4.37672L12.627 4.35059C12.298 4.35059 12.251 4.35059 12.0599 4.35059C7.94038 4.35059 4.60089 7.83093 4.60089 12.1242C4.60089 16.4175 7.84014 19.7901 11.872 19.8946V19.9011H15.3337V15.0757H12.0537C10.5719 15.0365 9.37831 13.773 9.37831 12.2157C9.37831 10.6583 10.6064 9.35564 12.1226 9.35564" fill="#133205"/>
    <path d="M21.8111 19.5346H17.7929V5.41528H21.8111V19.5346Z" fill="#133205"/>
    <path d="M27.8165 19.5345H23.7983V0.012085H27.8165V10.7956L32.2816 5.41898H36.9285L31.5188 11.8103L37.3863 19.5421H32.8702L28.9429 14.3283L27.813 15.5853V19.5383L27.8165 19.5345Z" fill="#133205"/>
    <path d="M36.7507 12.5563V12.4465C36.7507 10.2391 37.4411 8.45569 38.8253 7.09637C40.1914 5.72951 41.9461 5.04419 44.0896 5.04419C46.2332 5.04419 47.8136 5.73708 49.1178 7.1229C50.4149 8.50111 51.0616 10.1974 51.0616 12.2117C51.0616 12.5487 51.0434 12.9993 51.0106 13.5672H40.758C40.8017 14.4078 41.1504 15.078 41.8006 15.5854C42.4511 16.0927 43.3086 16.3464 44.3656 16.3464C45.6337 16.3464 46.7382 15.8845 47.6755 14.9644L50.0117 17.2892C48.4093 19.012 46.4657 19.8753 44.1841 19.8753C41.9024 19.8753 40.1841 19.2089 38.7998 17.8761C37.4338 16.5357 36.7507 14.76 36.7507 12.5525V12.5563ZM40.8199 10.8449H47.0288C47.0288 10.1898 46.7417 9.63324 46.1678 9.17508C45.5938 8.71695 44.8999 8.48977 44.0861 8.48977C43.2177 8.48977 42.4728 8.71695 41.8408 9.17508C41.2123 9.62945 40.8707 10.186 40.8161 10.8449H40.8199Z" fill="#133205"/>
    <path d="M52.1838 12.5563V12.4465C52.1838 10.2391 52.8741 8.45569 54.2584 7.09637C55.6244 5.72951 57.3791 5.04419 59.5227 5.04419C61.6662 5.04419 63.2466 5.73708 64.5508 7.1229C65.848 8.50111 66.4947 10.1974 66.4947 12.2117C66.4947 12.5487 66.4765 12.9993 66.4436 13.5672H56.1911C56.2348 14.4078 56.5835 15.078 57.2339 15.5854C57.8841 16.0927 58.7417 16.3464 59.7989 16.3464C61.0667 16.3464 62.1712 15.8845 63.1085 14.9644L65.4447 17.2892C63.8426 19.012 61.8988 19.8753 59.6171 19.8753C57.3354 19.8753 55.6171 19.2089 54.2329 17.8761C52.8668 16.5357 52.1838 14.76 52.1838 12.5525V12.5563ZM56.2529 10.8449H62.4618C62.4618 10.1898 62.1747 9.63324 61.6008 9.17508C61.0268 8.71695 60.333 8.48977 59.5191 8.48977C58.6508 8.48977 57.9059 8.71695 57.2738 9.17508C56.6453 9.62945 56.3037 10.186 56.2491 10.8449H56.2529Z" fill="#133205"/>
    <path d="M68.9978 14.8583V9.19398H67.2249V5.41898H68.9978V0.012085H72.896V5.41522H75.9006V9.19019H72.896V14.2374C72.896 14.9038 73.0306 15.3809 73.303 15.6724C73.5755 15.964 74.0116 16.1116 74.6146 16.1116C74.887 16.1116 75.2287 16.0738 75.639 16.0018V19.6973C75.0979 19.8336 74.4401 19.9018 73.6699 19.9018C70.5527 19.9018 68.9978 18.2206 68.9978 14.8546V14.8583Z" fill="#133205"/>
    <path d="M81.0331 19.3824H77.0149V5.26315H81.0331V19.3824Z" fill="#133205"/>
    <path d="M83.0751 14.4737L83.0751 10.2632L86.3577 10.2632L86.3577 14.4737L83.0751 14.4737Z" fill="#9DF316"/>
    <path d="M100.546 15.9864L97.705 18.9475L88.1252 8.96364L90.9665 6.00254L100.546 15.9864Z" fill="#9DF316"/>
    <path d="M88.1252 15.9864L90.9665 18.9475L100.546 8.96363L97.705 6.00253L88.1252 15.9864Z" fill="#9DF316"/>
    <path d="M61.263 4.07485H58.847L56.2855 0.012085H59.9476L61.263 4.07485Z" fill="#133205"/>
    <path d="M43.6422 0.012085H47.3045L44.7431 4.07485H42.3271L43.6422 0.012085Z" fill="#133205"/>
</svg>
    
