<svg width="12" height="13" viewBox="0 0 12 13" fill="none" xmlns="http://www.w3.org/2000/svg">
<g clip-path="url(#clip0_945_28045)">
<path d="M6 12.2344C9.31371 12.2344 12 9.54808 12 6.23438C12 2.92067 9.31371 0.234375 6 0.234375C2.68629 0.234375 0 2.92067 0 6.23438C0 9.54808 2.68629 12.2344 6 12.2344Z" fill="#F0F0F0"/>
<path d="M5.73926 6.23515H12.0001C12.0001 5.6936 11.9279 5.16898 11.7934 4.66992H5.73926V6.23515Z" fill="#D80027"/>
<path d="M5.73926 3.10429H11.1195C10.7522 2.50495 10.2826 1.97519 9.73502 1.53906H5.73926V3.10429Z" fill="#D80027"/>
<path d="M6.00004 12.234C7.41213 12.234 8.71003 11.746 9.73495 10.9297H2.26514C3.29006 11.746 4.58796 12.234 6.00004 12.234Z" fill="#D80027"/>
<path d="M0.880733 9.36601H11.1195C11.4143 8.88486 11.643 8.35892 11.7934 7.80078H0.206787C0.357186 8.35892 0.585865 8.88486 0.880733 9.36601V9.36601Z" fill="#D80027"/>
<path d="M2.77931 1.17136H3.32609L2.81749 1.54085L3.01177 2.13872L2.5032 1.76923L1.99462 2.13872L2.16244 1.62223C1.71464 1.99523 1.32216 2.43225 0.998719 2.91919H1.17391L0.850172 3.15438C0.799734 3.23852 0.751359 3.324 0.705 3.41074L0.859594 3.88655L0.571172 3.67699C0.499477 3.82889 0.433898 3.98421 0.374953 4.14277L0.545273 4.66702H1.17391L0.66532 5.03651L0.859594 5.63437L0.351023 5.26488L0.0463828 5.48623C0.0158906 5.73134 0 5.98099 0 6.23438H6C6 2.92069 6 2.53003 6 0.234375C4.81472 0.234375 3.7098 0.578203 2.77931 1.17136V1.17136ZM3.01177 5.63437L2.5032 5.26488L1.99462 5.63437L2.1889 5.03651L1.6803 4.66702H2.30895L2.5032 4.06915L2.69745 4.66702H3.32609L2.81749 5.03651L3.01177 5.63437ZM2.81749 3.28868L3.01177 3.88655L2.5032 3.51705L1.99462 3.88655L2.1889 3.28868L1.6803 2.91919H2.30895L2.5032 2.32132L2.69745 2.91919H3.32609L2.81749 3.28868ZM5.16394 5.63437L4.65537 5.26488L4.1468 5.63437L4.34107 5.03651L3.83248 4.66702H4.46112L4.65537 4.06915L4.84962 4.66702H5.47826L4.96966 5.03651L5.16394 5.63437ZM4.96966 3.28868L5.16394 3.88655L4.65537 3.51705L4.1468 3.88655L4.34107 3.28868L3.83248 2.91919H4.46112L4.65537 2.32132L4.84962 2.91919H5.47826L4.96966 3.28868ZM4.96966 1.54085L5.16394 2.13872L4.65537 1.76923L4.1468 2.13872L4.34107 1.54085L3.83248 1.17136H4.46112L4.65537 0.573492L4.84962 1.17136H5.47826L4.96966 1.54085Z" fill="#0052B4"/>
</g>
<defs>
<clipPath id="clip0_945_28045">
<rect width="12" height="12" fill="white" transform="translate(0 0.234375)"/>
</clipPath>
</defs>
</svg>
