<svg xmlns="http://www.w3.org/2000/svg" version="1.1" width="50px" height="50px" style="shape-rendering:geometricPrecision; text-rendering:geometricPrecision; image-rendering:optimizeQuality; fill-rule:evenodd; clip-rule:evenodd" xmlns:xlink="http://www.w3.org/1999/xlink">
<g><path style="opacity:1" fill="#133205" d="M -0.5,-0.5 C 16.1667,-0.5 32.8333,-0.5 49.5,-0.5C 49.5,16.1667 49.5,32.8333 49.5,49.5C 32.8333,49.5 16.1667,49.5 -0.5,49.5C -0.5,32.8333 -0.5,16.1667 -0.5,-0.5 Z"/></g>
<g><path style="opacity:1" fill="#97eb14" d="M 19.5,12.5 C 21.8333,12.5 24.1667,12.5 26.5,12.5C 26.5,14.1667 26.5,15.8333 26.5,17.5C 28.5,17.5 30.5,17.5 32.5,17.5C 32.5,19.5 32.5,21.5 32.5,23.5C 26.5283,22.3089 24.195,24.4756 25.5,30C 27.8098,30.4966 30.1432,30.6633 32.5,30.5C 32.5,32.5 32.5,34.5 32.5,36.5C 22.6494,38.3016 17.6494,34.3016 17.5,24.5C 15.5,24.5 13.5,24.5 11.5,24.5C 11.5,22.5 11.5,20.5 11.5,18.5C 16.836,19.8155 19.5026,17.8155 19.5,12.5 Z"/></g>
</svg>
